<?xml version="1.0" encoding="UTF-8"?>
<svg version="1.1" xmlns="http://www.w3.org/2000/svg" width="1254" height="1254">
<path d="M0 0 C413.82 0 827.64 0 1254 0 C1254 413.82 1254 827.64 1254 1254 C840.18 1254 426.36 1254 0 1254 C0 840.18 0 426.36 0 0 Z " fill="#685AF6" transform="translate(0,0)"/>
<path d="M0 0 C7.81196887 5.568667 13.60659447 13.34344854 16.01171875 22.68359375 C17.03543146 29.36120604 17.17766174 36.39455315 15.58984375 42.97265625 C15.41235317 47.03673544 16.41554906 48.43390323 19.10791016 51.39233398 C19.6497998 51.95122314 20.19168945 52.5101123 20.75 53.0859375 C21.87109399 54.316643 22.98953899 55.54976622 24.10546875 56.78515625 C24.66927246 57.40052246 25.23307617 58.01588867 25.81396484 58.64990234 C41.19576554 75.80812754 53.25295083 96.426519 62.4375 117.4609375 C66.86318238 116.57161598 71.14582217 115.61777041 75.375 114.0234375 C80.49963189 112.24677941 85.74445406 111.4631086 91.08764648 110.63891602 C91.80251221 110.52862061 92.51737793 110.4183252 93.25390625 110.3046875 C94.04466553 110.18424072 94.8354248 110.06379395 95.65014648 109.93969727 C97.74705114 109.57952997 99.83408368 109.16114421 101.91430664 108.71459961 C112.59948989 106.47123874 122.8484432 105.9412859 133.75 106.0234375 C134.6235614 106.02681122 135.4971228 106.03018494 136.39715576 106.03366089 C162.20670583 106.17724629 186.49896497 111.25052227 211.4375 117.4609375 C211.72560547 116.55786865 212.01371094 115.6547998 212.31054688 114.72436523 C213.79650583 110.42132943 215.81402185 106.54103705 217.9375 102.5234375 C218.37892334 101.68804443 218.82034668 100.85265137 219.27514648 99.99194336 C223.50372503 92.12473332 228.25242351 84.72640665 233.4375 77.4609375 C234.16582031 76.43742187 234.89414062 75.41390625 235.64453125 74.359375 C242.00867171 65.66744982 248.85589288 56.60116547 256.80859375 49.27734375 C257.34613281 48.67792969 257.88367188 48.07851563 258.4375 47.4609375 C258.26645365 44.12765401 258.26645365 44.12765401 257.8125 41.78515625 C256.164068 31.56831211 257.53804007 20.67039773 263 11.7734375 C269.62585058 2.75309637 278.26978042 -4.38912718 289.4375 -6.5390625 C297.83351144 -7.0473193 305.71074656 -7.20299147 313.4375 -3.5390625 C314.18386719 -3.19875 314.93023438 -2.8584375 315.69921875 -2.5078125 C326.85558541 3.09878263 332.46484562 11.53385915 336.75 22.9609375 C339.03255545 34.5812198 336.69756821 45.47536529 330.4375 55.4609375 C325.13282745 62.65264772 319.73233833 67.16497525 311.4375 70.4609375 C310.73367188 70.84636719 310.02984375 71.23179687 309.3046875 71.62890625 C305.61536084 72.69951467 302.53394099 72.28165829 298.734375 71.97167969 C289.36145325 71.1106298 289.36145325 71.1106298 281.0390625 74.64453125 C278.56346419 77.27243992 276.65399753 80.24034547 274.78173828 83.31689453 C273.30002032 85.68021584 271.68688416 87.90271199 270.02734375 90.14453125 C264.11355929 98.19086945 258.6383651 106.43807566 253.75 115.1484375 C253.35224365 115.85379639 252.9544873 116.55915527 252.54467773 117.28588867 C249.89140817 122.17501402 248.03949606 127.13877643 246.4375 132.4609375 C247.53964844 133.04359375 248.64179687 133.62625 249.77734375 134.2265625 C280.06038329 150.49191952 309.75138472 173.97633397 329.4375 202.4609375 C329.86836914 203.07984863 330.29923828 203.69875977 330.74316406 204.33642578 C346.17226663 226.73690935 357.2076906 251.24824392 364.4375 277.4609375 C364.69917969 278.34136719 364.96085938 279.22179687 365.23046875 280.12890625 C367.07956993 286.78379322 368.11528068 293.50586552 369.0625 300.3359375 C369.18568604 301.22079834 369.30887207 302.10565918 369.43579102 303.01733398 C371.05290621 315.3116562 371.58672917 327.56103313 371.53515625 339.953125 C371.5337413 341.26507843 371.53232635 342.57703186 371.53086853 343.92874146 C371.52710679 347.36450212 371.51733328 350.80021841 371.50616455 354.23596191 C371.49581148 357.76277059 371.49134159 361.28958666 371.48632812 364.81640625 C371.47570317 371.69793454 371.45870626 378.57943387 371.4375 385.4609375 C372.61143311 385.43999023 373.78536621 385.41904297 374.99487305 385.39746094 C379.40994751 385.32427739 383.82497003 385.27885702 388.24047852 385.24121094 C390.14031025 385.22127195 392.04008204 385.19411059 393.93969727 385.15917969 C410.41805276 384.86407087 423.60556479 385.90193026 436.4375 397.4609375 C447.08418029 408.46448976 448.63700606 420.57669237 448.75 435.2734375 C448.77900391 436.51931641 448.80800781 437.76519531 448.83789062 439.04882812 C448.88828363 446.35581413 448.47601521 451.29611081 444.4375 457.4609375 C441.9375 459.8359375 441.9375 459.8359375 439.4375 461.4609375 C438.839375 461.8734375 438.24125 462.2859375 437.625 462.7109375 C432.80635689 464.36304371 428.56970808 463.79279159 423.8125 462.3984375 C419.22202179 459.76316297 415.81771569 456.22136887 413.4375 451.4609375 C413.3319303 449.77963557 413.28219482 448.09464486 413.26171875 446.41015625 C413.23787109 445.40146484 413.21402344 444.39277344 413.18945312 443.35351562 C413.14672405 441.22871545 413.11534397 439.10365463 413.09570312 436.97851562 C412.96260997 430.83046438 412.96260997 430.83046438 410.51953125 425.29296875 C406.75534492 421.98076727 403.39375787 422.25091938 398.5859375 422.14453125 C397.81190582 422.12375015 397.03787415 422.10296906 396.24038696 422.08155823 C393.76451608 422.01610302 391.28853798 421.95719663 388.8125 421.8984375 C387.13540552 421.85524843 385.45832193 421.81163402 383.78125 421.76757812 C379.66677692 421.66042579 375.55219586 421.55914705 371.4375 421.4609375 C371.45321045 422.29302734 371.4689209 423.12511719 371.48510742 423.98242188 C371.82595841 445.02601546 370.80669 465.54846305 368.4375 486.4609375 C368.23804721 488.26299495 368.038792 490.06507428 367.83984375 491.8671875 C367.70707031 493.053125 367.57429687 494.2390625 367.4375 495.4609375 C368.05157715 495.45046387 368.6656543 495.43999023 369.29833984 495.42919922 C372.13634997 495.38709541 374.97429401 495.36144128 377.8125 495.3359375 C378.77800781 495.31917969 379.74351562 495.30242187 380.73828125 495.28515625 C394.61905853 495.19199667 407.32103272 498.62251856 417.62890625 508.4375 C428.64569818 520.76298212 431.1606599 535.0899234 431.06884766 551.03125 C431.06244472 553.35600976 431.10992809 555.67585042 431.16015625 558 C431.27412585 571.37088435 431.27412585 571.37088435 426.11865234 577.02001953 C420.64495652 581.71153169 416.50173019 582.94905334 409.296875 582.86328125 C404.60807094 582.20351784 401.4505335 580.05778818 398.4375 576.4609375 C393.51877092 569.10047373 393.80634709 561.77773817 393.75 553.1484375 C393.71164805 550.44383257 393.6625984 547.73960239 393.61328125 545.03515625 C393.60208252 543.84494873 393.59088379 542.65474121 393.5793457 541.4284668 C393.56891741 538.40423557 393.56891741 538.40423557 392.4375 535.4609375 C390.01366923 534.29140334 390.01366923 534.29140334 387.4375 533.4609375 C386.7775 533.1309375 386.1175 532.8009375 385.4375 532.4609375 C383.47975931 532.30714898 381.51732648 532.21122287 379.5546875 532.14453125 C377.80478516 532.08168945 377.80478516 532.08168945 376.01953125 532.01757812 C374.18455078 531.95860352 374.18455078 531.95860352 372.3125 531.8984375 C371.08144531 531.85525391 369.85039063 531.81207031 368.58203125 531.76757812 C365.53397147 531.66125046 362.4858281 531.55921969 359.4375 531.4609375 C359.17839844 532.7190625 358.91929687 533.9771875 358.65234375 535.2734375 C352.89819866 561.04396678 341.08253615 585.44752029 328.4375 608.4609375 C329.283125 608.43773437 330.12875 608.41453125 331 608.390625 C344.60329117 608.174209 356.11387028 610.99386197 366.3125 620.7109375 C379.52921395 634.93509607 379.68293746 649.86330236 379.78759766 668.20288086 C379.80418613 670.33157258 379.83151387 672.46020795 379.86962891 674.58862305 C379.92458013 677.68046533 379.94629328 680.77101558 379.9609375 683.86328125 C379.98360687 684.80622543 380.00627625 685.74916962 380.02963257 686.72068787 C380.00934753 693.11043934 378.72084565 697.60158031 374.4375 702.4609375 C368.52581149 706.96690507 362.65417672 706.93851169 355.4375 706.4609375 C355.4375 705.8009375 355.4375 705.1409375 355.4375 704.4609375 C354.3546875 704.43 354.3546875 704.43 353.25 704.3984375 C349.13863395 703.02798215 347.52592578 700.13977984 345.4375 696.4609375 C344.53787526 693.76206328 344.31334533 692.2190158 344.31152344 689.4519043 C344.30771667 688.65064621 344.30390991 687.84938812 344.29998779 687.02384949 C344.29896057 686.16133072 344.29793335 685.29881195 344.296875 684.41015625 C344.27854649 682.57876361 344.25897614 680.74738305 344.23828125 678.91601562 C344.20932511 676.032426 344.1875002 673.14961358 344.18701172 670.26586914 C344.18367041 667.47993224 344.14908251 664.69578204 344.109375 661.91015625 C344.1164447 661.05371017 344.1235144 660.1972641 344.13079834 659.31486511 C344.04559544 655.10691326 343.74569933 652.2934206 341.08300781 648.93286133 C334.41637074 642.7036531 322.23148851 644.3469952 313.54296875 644.54296875 C307.94697543 644.97365175 304.51211321 645.69040203 300.67138672 649.86206055 C298.84148836 652.35178751 297.18115844 654.89592405 295.62060547 657.5625 C293.72464854 660.6047949 291.33655093 663.12090957 288.875 665.7109375 C288.19256226 666.44812012 288.19256226 666.44812012 287.49633789 667.20019531 C273.5588953 682.16329393 257.3074192 693.47902311 239.49951172 703.3125 C237.75666051 704.28318104 236.03402415 705.29002461 234.31640625 706.3046875 C228.10979711 709.91982982 221.68292949 712.23822575 214.859375 714.375 C212.34134258 715.17410161 209.93705416 716.02057893 207.5 717.0234375 C201.63454761 719.27741047 195.43082547 720.5999242 189.32080078 722.02197266 C187.74116078 722.39015942 186.16503542 722.77338079 184.58984375 723.16015625 C178.77375402 724.4276503 172.99617186 724.71970727 167.0625 724.8359375 C165.90161865 724.87509277 165.90161865 724.87509277 164.71728516 724.91503906 C160.86619798 724.92678786 158.88557369 724.73362578 155.5234375 722.6875 C152.03485525 718.96373242 151.18770941 716.20886278 151.18302441 711.13409042 C151.17719221 710.0477238 151.17136002 708.96135717 151.16535109 707.84207034 C151.16913042 706.64909374 151.17290974 705.45611715 151.17680359 704.22698975 C151.17297804 702.95923179 151.16915249 701.69147383 151.16521102 700.38529897 C151.15490428 696.86386081 151.15711964 693.34252417 151.16139162 689.82107759 C151.16385407 686.02408381 151.15485056 682.22711478 151.14735413 678.43013 C151.1345907 670.98969941 151.13281556 663.54930487 151.13515439 656.10886517 C151.13693624 650.06068355 151.13519077 644.01251289 151.13092995 637.96433258 C151.13003716 636.67390418 151.13003716 636.67390418 151.12912634 635.35740651 C151.12791461 633.6097915 151.12670047 631.86217648 151.12548397 630.11456147 C151.11460164 613.71632898 151.11677392 597.31811705 151.12286881 580.9198834 C151.12803596 565.91994164 151.11678912 550.92006485 151.09777059 535.92013595 C151.07839452 520.52015553 151.07013596 505.12020586 151.07389385 489.72021317 C151.07580658 481.07360335 151.0733115 472.4270488 151.05917931 463.78044891 C151.04726732 456.41763348 151.04585839 449.05490732 151.05796947 441.69209066 C151.06386008 437.93616952 151.06495276 434.1804117 151.05296707 430.42450142 C151.04011754 426.350478 151.05056874 422.2768436 151.0632782 418.20281982 C151.05590391 417.01876611 151.04852963 415.83471241 151.04093188 414.61477828 C151.09102301 406.99117389 152.05089807 401.47042875 156 394.8359375 C163.05112404 387.96561151 170.22795621 385.33283261 179.923172 385.34068298 C181.8897728 385.33862099 181.8897728 385.33862099 183.89610291 385.33651733 C185.34194969 385.34005605 186.78779625 385.34369086 188.23364258 385.34741211 C189.76145425 385.34769429 191.28926605 385.34753565 192.81707764 385.3469696 C196.95922334 385.34668283 201.10134005 385.35256025 205.24347901 385.35954356 C209.57432041 385.36579699 213.90516248 385.36638248 218.23600769 385.36756897 C226.43464401 385.37067641 234.63326699 385.3788819 242.83189744 385.38891846 C252.16677954 385.40009781 261.50166227 385.40559464 270.8365494 385.41061389 C290.03687383 385.42106499 309.23718584 385.43865309 328.4375 385.4609375 C328.37552432 377.2180658 328.29789756 368.97553619 328.20178509 360.73299885 C328.15758692 356.90315781 328.1182298 353.07341094 328.09106445 349.2434082 C327.87456294 319.63870356 325.55297763 291.86786349 313.4375 264.4609375 C313.15567871 263.80448242 312.87385742 263.14802734 312.58349609 262.47167969 C305.53196894 246.12584258 296.32070131 230.76027161 284.4375 217.4609375 C283.59832031 216.501875 282.75914062 215.5428125 281.89453125 214.5546875 C250.26782471 178.85177838 205.12386143 155.5023515 157.4375 151.4609375 C150.96283258 151.09099936 144.4833931 151.07076288 138 151.0859375 C137.12243042 151.08648132 136.24486084 151.08702515 135.34069824 151.08758545 C113.75455469 151.14891251 93.85778438 154.38608597 73.4375 161.4609375 C72.45958496 161.79665771 72.45958496 161.79665771 71.46191406 162.13916016 C55.26686544 167.83080585 39.24698959 176.26730313 25.4375 186.4609375 C24.90672852 186.8518457 24.37595703 187.24275391 23.82910156 187.64550781 C3.11943167 203.03766891 -12.78362008 220.73850988 -26.5625 242.4609375 C-27.22121094 243.48832031 -27.87992188 244.51570312 -28.55859375 245.57421875 C-49.47808382 279.73144618 -53.72070762 315.95544266 -54.16339111 355.11572266 C-54.20411417 358.54924361 -54.25488619 361.98261648 -54.3046875 365.41601562 C-54.39964235 372.09755922 -54.48497174 378.77917013 -54.5625 385.4609375 C-53.36897085 385.45540674 -53.36897085 385.45540674 -52.15132999 385.44976425 C-32.77065506 385.36134132 -13.39002051 385.29519292 5.99081326 385.25368881 C15.36333407 385.2330831 24.73572004 385.20500062 34.1081543 385.15917969 C42.27929132 385.1192509 50.45033067 385.09349022 58.62156254 385.08458352 C62.94628657 385.07937898 67.27073123 385.06718815 71.59536552 385.03801727 C75.67064905 385.01075253 79.74553961 385.00251468 83.82090569 385.00850677 C85.31198771 385.00741146 86.80308364 384.99952343 88.29408646 384.9841156 C99.36412507 384.87538521 107.16386486 386.40205635 115.83203125 393.5078125 C121.74646978 400.7029932 122.01275273 407.28385245 121.94543457 416.26528931 C121.95479451 418.18642015 121.95479451 418.18642015 121.96434355 420.14636171 C121.98098736 423.68553985 121.97281347 427.22428461 121.96039867 430.76346397 C121.95133025 434.58627074 121.96532665 438.40900417 121.97631836 442.23179626 C121.99408808 449.71382942 121.99027083 457.1957019 121.9786678 464.6777413 C121.96962899 470.75827175 121.9684114 476.83875721 121.97276306 482.91929245 C121.97337599 483.78516426 121.97398893 484.65103607 121.97462043 485.54314642 C121.97589935 487.30220078 121.9771962 489.06125512 121.9785108 490.82030945 C121.98991171 507.30722918 121.97680986 523.79405988 121.95530933 540.28096502 C121.93743245 554.42726341 121.94054825 568.57343053 121.95898438 582.71972656 C121.98038881 599.15132444 121.98881978 615.58284437 121.97653532 632.01445425 C121.97526113 633.76637418 121.97400365 635.51829412 121.97276306 637.27021408 C121.97183741 638.56315759 121.97183741 638.56315759 121.97089306 639.88222117 C121.96743935 645.95641828 121.97326881 652.03056595 121.98268127 658.1047554 C121.99389762 665.50562648 121.99086868 672.90632784 121.9695583 680.30717947 C121.95904386 684.08317024 121.95493262 687.85887802 121.96815491 691.63486671 C121.98226766 695.72700867 121.96542047 699.81843568 121.94543457 703.91055298 C121.95435746 705.10548579 121.96328034 706.3004186 121.97247362 707.53156149 C121.91296759 713.79145637 121.71716831 717.73527675 117.4375 722.4609375 C111.96897224 726.48670474 102.75072763 725.07584589 96.30029297 724.15625 C47.23645956 715.41197962 1.61870981 688.30295513 -28.5625 648.4609375 C-29.5525 646.9759375 -29.5525 646.9759375 -30.5625 645.4609375 C-33.78004556 644.99224626 -33.78004556 644.99224626 -37.58203125 645.0625 C-38.62540901 645.05819473 -38.62540901 645.05819473 -39.68986511 645.05380249 C-41.16345024 645.05175958 -42.63706234 645.05730536 -44.1105957 645.06982422 C-46.35625734 645.08580413 -48.60009944 645.07002294 -50.84570312 645.05078125 C-52.27864978 645.05276507 -53.71159532 645.0566116 -55.14453125 645.0625 C-56.44624268 645.06588379 -57.7479541 645.06926758 -59.08911133 645.07275391 C-62.86154757 645.49435886 -64.65596975 646.04292386 -67.5625 648.4609375 C-70.93438459 653.39707473 -70.97672045 657.79412488 -70.93359375 663.55078125 C-70.95097393 665.32226758 -70.96855834 667.09375191 -70.98632812 668.86523438 C-70.99639423 671.63439605 -70.99999693 674.40342821 -70.99829102 677.17260742 C-71.00187532 679.86155061 -71.02926493 682.54951362 -71.05859375 685.23828125 C-71.05041122 686.0582811 -71.0422287 686.87828094 -71.03379822 687.72312927 C-71.10723182 693.43750175 -72.26066551 696.76477119 -75.5625 701.4609375 C-81.68900624 706.21210561 -86.96319631 707.31452543 -94.5625 706.4609375 C-99.54919007 703.96759247 -103.05925474 700.46742801 -105.5625 695.4609375 C-105.66757943 693.91613066 -105.71120433 692.36693015 -105.72363281 690.81860352 C-105.73324036 689.85322159 -105.7428479 688.88783966 -105.75274658 687.89320374 C-105.75699646 686.84434494 -105.76124634 685.79548615 -105.765625 684.71484375 C-105.77132507 683.63395981 -105.77702515 682.55307587 -105.78289795 681.43943787 C-105.79236189 679.14363588 -105.79888744 676.84782022 -105.80273438 674.55200195 C-105.81237411 671.06892418 -105.84335716 667.58645314 -105.875 664.10351562 C-105.88153671 661.86979516 -105.88678455 659.63607048 -105.890625 657.40234375 C-105.9029718 656.37170303 -105.9153186 655.34106232 -105.92803955 654.27919006 C-105.88825618 641.1057546 -102.070978 631.37895252 -93.5625 621.4609375 C-84.04598639 612.8468519 -74.05649668 608.27875062 -61.25 608.3984375 C-59.99574219 608.40746094 -58.74148438 608.41648437 -57.44921875 608.42578125 C-56.02029297 608.44318359 -56.02029297 608.44318359 -54.5625 608.4609375 C-55.02398437 607.54957031 -55.48546875 606.63820313 -55.9609375 605.69921875 C-58.18215881 601.2966887 -60.37540786 596.88050439 -62.5625 592.4609375 C-62.96887695 591.64238281 -63.37525391 590.82382812 -63.79394531 589.98046875 C-85.5625 545.93115809 -85.5625 545.93115809 -85.5625 531.4609375 C-89.77160555 531.54210606 -93.9792933 531.65492796 -98.1875 531.7734375 C-99.97220703 531.80727539 -99.97220703 531.80727539 -101.79296875 531.84179688 C-111.39530391 532.01751205 -111.39530391 532.01751205 -119.18408203 537.16210938 C-121.01318969 540.21256593 -120.94688711 542.40469721 -120.96875 545.94921875 C-120.99066406 547.21314453 -121.01257813 548.47707031 -121.03515625 549.77929688 C-121.04417969 551.09736328 -121.05320312 552.41542969 -121.0625 553.7734375 C-121.18621857 571.68611951 -121.18621857 571.68611951 -126.31640625 577.421875 C-126.91324219 577.88851562 -127.51007813 578.35515625 -128.125 578.8359375 C-128.72441406 579.31804688 -129.32382812 579.80015625 -129.94140625 580.296875 C-134.58254508 583.62954819 -140.06971406 582.95766388 -145.5625 582.4609375 C-150.18283071 580.44479319 -152.92490899 577.4337111 -155.50854492 573.19921875 C-157.61477046 567.72703306 -157.17724725 561.77537653 -157.04956055 555.99023438 C-157.00041226 553.72989758 -156.98808378 551.47175948 -156.98242188 549.2109375 C-156.86390038 533.61160271 -155.3364219 520.40343043 -144.125 508.5234375 C-135.5821819 500.70201293 -124.36914197 495.30376076 -112.703125 495.36328125 C-111.58808594 495.36650391 -110.47304688 495.36972656 -109.32421875 495.37304688 C-108.16535156 495.38142578 -107.00648438 495.38980469 -105.8125 495.3984375 C-104.63816406 495.40294922 -103.46382813 495.40746094 -102.25390625 495.41210938 C-99.35671928 495.42388656 -96.45963546 495.44033424 -93.5625 495.4609375 C-93.64814209 494.8124585 -93.73378418 494.16397949 -93.82202148 493.49584961 C-94.21955797 490.46399642 -94.6097829 487.4312411 -95 484.3984375 C-95.13470703 483.37943359 -95.26941406 482.36042969 -95.40820312 481.31054688 C-97.25463271 466.85435429 -97.70501502 452.56956448 -97.625 438.0234375 C-97.61996709 436.40560037 -97.6154074 434.78776169 -97.61132812 433.16992188 C-97.60048246 429.26688783 -97.58332023 425.36393055 -97.5625 421.4609375 C-102.45614229 421.5051652 -107.34850346 421.57507458 -112.24145508 421.66845703 C-113.90476263 421.69662399 -115.56820296 421.71785983 -117.23168945 421.73193359 C-119.62780525 421.75342342 -122.02233184 421.80010038 -124.41796875 421.8515625 C-125.1577446 421.85279114 -125.89752045 421.85401978 -126.65971375 421.85528564 C-131.55906419 421.99322903 -134.12236688 422.96477083 -137.5625 426.4609375 C-138.8078761 428.95168971 -138.70419679 430.69193584 -138.73828125 433.4765625 C-138.76212891 434.48074219 -138.78597656 435.48492188 -138.81054688 436.51953125 C-138.85319604 438.63131098 -138.88461875 440.74335007 -138.90429688 442.85546875 C-139.07354379 449.01920538 -139.44203749 452.76924636 -143.5625 457.4609375 C-148.94421999 462.3044855 -152.91257441 463.94225 -160.09765625 463.7734375 C-165.19438187 463.12725993 -168.16573284 460.05576989 -171.375 456.3359375 C-175.61894881 450.7581762 -174.85698745 445.10141979 -174.91259766 438.35229492 C-174.92897856 436.90258532 -174.95602522 435.45295022 -174.99462891 434.00366211 C-175.29537016 422.63433518 -174.22065827 412.18144713 -167.01953125 402.77734375 C-157.70092672 393.07333165 -147.64564097 385.56468486 -133.66357422 385.12036133 C-131.98137052 385.12082612 -130.29910905 385.1371568 -128.6171875 385.16796875 C-127.27335495 385.17433601 -127.27335495 385.17433601 -125.90237427 385.18083191 C-123.08042521 385.19743596 -120.25922801 385.23505157 -117.4375 385.2734375 C-115.50782292 385.28850804 -113.57813448 385.30219226 -111.6484375 385.31445312 C-106.95284153 385.3472792 -102.25779759 385.39893134 -97.5625 385.4609375 C-97.57138245 384.6962616 -97.58026489 383.93158569 -97.5894165 383.14373779 C-97.67091079 375.79442297 -97.73112807 368.4453391 -97.76974869 361.09568405 C-97.79027382 357.32074855 -97.81791157 353.54619817 -97.86425781 349.77148438 C-98.27011656 315.76450191 -94.65988977 282.86601372 -80.5625 251.4609375 C-80.13614258 250.48930664 -80.13614258 250.48930664 -79.70117188 249.49804688 C-63.9455562 213.73313958 -39.85454245 180.22921018 -8.5625 156.4609375 C-8.00626953 156.03361328 -7.45003906 155.60628906 -6.87695312 155.16601562 C2.18453857 148.22969462 11.56469603 142.17051088 21.4375 136.4609375 C22.36304688 135.8834375 23.28859375 135.3059375 24.2421875 134.7109375 C26.4375 133.4609375 26.4375 133.4609375 28.4375 133.4609375 C18.05763653 112.79255405 18.05763653 112.79255405 5.4375 93.4609375 C4.80134766 92.595896 4.80134766 92.595896 4.15234375 91.71337891 C2.05260696 88.88265167 -0.08457933 86.09676061 -2.3046875 83.359375 C-4.5625 80.4609375 -4.5625 80.4609375 -6.0078125 77.875 C-7.69793554 75.12251391 -8.65674142 73.94482336 -11.5625 72.4609375 C-15.94421397 71.94549927 -20.31917357 72.15149873 -24.71875 72.31958008 C-31.52299385 72.56984151 -36.67466506 72.18260225 -42.5625 68.4609375 C-43.27277344 68.01363281 -43.98304688 67.56632812 -44.71484375 67.10546875 C-53.17782107 61.22708786 -58.87051034 53.41764111 -62.1796875 43.63671875 C-63.87676709 33.99107253 -63.4066891 24.06614298 -58.5625 15.4609375 C-58.12679687 14.68234375 -57.69109375 13.90375 -57.2421875 13.1015625 C-51.46503512 3.69395918 -43.2207301 -2.70744008 -32.69921875 -6.1484375 C-20.82739558 -8.31878909 -10.31607861 -6.19593746 0 0 Z " fill="#FDFCFD" transform="translate(492.5625,246.5390625)"/>
<path d="M0 0 C0.84614868 -0.00145523 1.69229736 -0.00291046 2.56408691 -0.00440979 C4.35265548 -0.00275462 6.14123885 0.00876383 7.9296875 0.02954102 C10.62043386 0.05821211 13.30917001 0.05019803 16 0.03710938 C37.9150003 0.06372047 57.53131407 5.16247678 73.84375 20.62109375 C89.67186291 37.17174534 94.49826983 57.14654804 94.39575195 79.42773438 C94.39686802 80.77947596 94.39893079 82.13121705 94.40185547 83.48295593 C94.40653797 86.36876657 94.40549966 89.25449551 94.40007973 92.14030457 C94.39239813 96.71489198 94.40320472 101.28932601 94.4172821 105.8638916 C94.45482123 118.86353225 94.47321884 131.86310038 94.46166992 144.86279297 C94.4554324 152.06179794 94.46713446 159.26055175 94.49811524 166.45949507 C94.51664386 170.99578546 94.51357433 175.53135724 94.49394763 180.06763458 C94.48701102 182.90141443 94.50112822 185.734814 94.52089691 188.5685215 C94.52825577 190.48410003 94.51111596 192.39972523 94.49290466 194.31523132 C94.61278584 205.61683189 98.09472635 216.29313986 106.15625 224.49609375 C114.47238311 231.75806914 122.8313103 233.88629855 133.53125 235.43359375 C138.09875143 236.14948452 140.99008721 236.90777592 144.15625 240.49609375 C147.44525941 245.57983934 146.48990105 251.88028165 146.47192383 257.71289062 C146.4687703 259.85729104 146.49221574 262.00030185 146.51757812 264.14453125 C146.51985212 265.51952952 146.52055415 266.89453148 146.51953125 268.26953125 C146.52251221 269.51138184 146.52549316 270.75323242 146.52856445 272.03271484 C146.11775147 275.85421846 145.16240582 278.235758 143.15625 281.49609375 C138.71048491 285.07203523 135.63255429 285.66082078 129.96875 285.87109375 C120.2094911 286.36466546 111.97771737 290.86357962 104.90625 297.5078125 C98.94384339 304.28206466 94.90780583 312.1881787 94.9046936 321.30427551 C94.89931076 322.44069489 94.89392792 323.57711426 94.88838196 324.74797058 C94.89250595 325.98074234 94.89662994 327.2135141 94.90087891 328.48364258 C94.8953208 330.49445434 94.88975838 332.5052661 94.88403487 334.5160774 C94.87970284 336.6716346 94.88016276 338.82714564 94.88185501 340.98270607 C94.88470148 345.49518297 94.87028271 350.00750495 94.85287476 354.51994324 C94.80598684 367.35010419 94.78194359 380.18025519 94.77539062 393.01049805 C94.77161621 400.10144759 94.75339259 407.19222198 94.72029626 414.28309649 C94.70353569 418.02557016 94.69416357 421.76772559 94.70323563 425.51023293 C94.75663547 449.61035848 93.62903431 471.72717844 78.15625 491.49609375 C77.63417969 492.18316406 77.11210938 492.87023437 76.57421875 493.578125 C69.05458189 502.85417339 59.18516757 509.18339492 48.15625 513.49609375 C47.07537109 513.93888672 47.07537109 513.93888672 45.97265625 514.390625 C38.10811272 517.50271533 30.81816665 518.81459814 22.3984375 518.8671875 C21.49175323 518.87621597 20.58506897 518.88524445 19.65090942 518.89454651 C17.7466356 518.90896987 15.84231311 518.91791589 13.93798828 518.92163086 C11.0320356 518.93359052 8.12816604 518.98290508 5.22265625 519.03320312 C3.36459361 519.0426621 1.50651805 519.04989965 -0.3515625 519.0546875 C-1.21419708 519.07421982 -2.07683167 519.09375214 -2.96560669 519.11387634 C-7.13740875 519.08275042 -9.97146917 518.84493757 -13.31201172 516.21118164 C-18.8200205 510.30428041 -18.27234298 504.98927355 -18.34375 497.18359375 C-18.385 496.06791016 -18.42625 494.95222656 -18.46875 493.80273438 C-18.52014121 488.38417394 -18.51916533 484.53246901 -14.9375 480.265625 C-11.04451791 476.41354056 -7.90225047 476.34057447 -2.59765625 476.28515625 C-1.10480754 476.25704538 0.38803083 476.22838075 1.88085938 476.19921875 C4.22386917 476.15829707 6.56669467 476.12140175 8.90991211 476.09472656 C27.07999366 475.93763714 27.07999366 475.93763714 42.2109375 466.75 C47.97891123 460.06702642 50.26634042 453.62232078 50.30101013 444.85044861 C50.30790863 443.72500641 50.31480713 442.59956421 50.32191467 441.4400177 C50.32452805 440.21449692 50.32714142 438.98897614 50.32983398 437.72631836 C50.34009933 435.73344983 50.35036678 433.74058132 50.36071312 431.74771321 C50.37092783 429.60940437 50.37878807 427.47109783 50.38604546 425.33277702 C50.40155195 420.86378534 50.425504 416.39486332 50.45094299 411.92591858 C50.52199254 399.21896789 50.58176172 386.5119769 50.63305664 373.80493164 C50.66147436 366.78365822 50.69691943 359.7624538 50.73971039 352.74125296 C50.76630165 348.30974199 50.78431783 343.87830899 50.79574764 339.44673431 C50.8071198 336.02164638 50.83121422 332.59666615 50.85327148 329.17163086 C50.85386063 327.96027969 50.85444977 326.74892853 50.85505676 325.50086975 C51.05281282 302.19782833 59.74717195 283.78504678 76.15625 267.49609375 C78.43453456 265.39487794 80.73484046 263.43322138 83.15625 261.49609375 C82.04812926 258.17173154 81.30088373 257.56924043 78.65625 255.43359375 C67.2320746 245.6414434 58.78146097 233.88563898 54.15625 219.49609375 C53.599375 218.01109375 53.599375 218.01109375 53.03125 216.49609375 C50.69503831 208.48622511 51.01092569 200.24018477 51.0144043 191.97094727 C51.0113675 190.61492806 51.00784462 189.25890987 51.00387573 187.90289307 C50.99602749 184.99629671 50.99085736 182.0897124 50.98758507 179.18310738 C50.98164006 174.58028088 50.9650681 169.97753027 50.94624329 165.3747406 C50.93990714 163.79458336 50.9335815 162.21442608 50.92726612 160.63426876 C50.92410031 159.8433096 50.9209345 159.05235044 50.91767275 158.23742282 C50.8756999 147.5325626 50.84261448 136.82773987 50.83032227 126.12280273 C50.82192762 118.88614263 50.79939108 111.64967306 50.7609666 104.41310829 C50.74126461 100.59045387 50.72878203 96.76808386 50.73380089 92.94537544 C50.73846568 89.34920647 50.72454342 85.75357681 50.69678879 82.15751648 C50.68664819 80.22107804 50.69609633 78.28456746 50.70628357 76.34812927 C50.60929658 67.24365181 48.88089354 60.65189817 43.15625 53.49609375 C43.15625 52.83609375 43.15625 52.17609375 43.15625 51.49609375 C42.60211426 51.22966064 42.04797852 50.96322754 41.47705078 50.6887207 C39.15625 49.49609375 39.15625 49.49609375 36.76904297 48.01245117 C27.62228298 42.68755008 19.54063688 42.68793277 9.28125 42.80859375 C6.92680671 42.81995503 4.57315062 42.82247298 2.21871948 42.80815125 C0.76731549 42.80085185 -0.68427604 42.8086629 -2.13546753 42.83454895 C-7.91830803 42.83080752 -11.74450012 41.20064274 -16.19140625 37.58984375 C-18.86036668 32.59264124 -18.37988948 27.5644517 -18.28125 21.99609375 C-18.28833984 20.86816406 -18.29542969 19.74023438 -18.30273438 18.578125 C-18.22806261 8.8707951 -18.22806261 8.8707951 -14.84375 4.49609375 C-9.96458475 0.27113088 -6.15864723 -0.08647564 0 0 Z " fill="#FCFBFD" transform="translate(947.84375,434.50390625)"/>
<path d="M0 0 C2.72538664 -0.00442034 5.44920979 -0.04098854 8.17431641 -0.07861328 C9.92300886 -0.08447473 11.67170889 -0.08844861 13.42041016 -0.09033203 C14.22674896 -0.10470306 15.03308777 -0.1190741 15.86386108 -0.13388062 C21.15132703 -0.09116365 24.15975445 0.8453051 28.33447266 4.37060547 C32.93740863 9.06730495 31.84799703 15.0582055 31.83447266 21.24560547 C31.86283203 22.41736328 31.89119141 23.58912109 31.92041016 24.79638672 C31.94225166 34.41756901 31.94225166 34.41756901 29.11572266 38.06591797 C24.22145024 42.12156505 19.97004449 42.65306108 13.76025391 42.64404297 C12.27261637 42.66434629 10.78498623 42.68519733 9.29736328 42.70654297 C6.97837061 42.72902188 4.65967238 42.74557321 2.34057617 42.75146484 C-8.26528262 42.79678418 -16.82098093 43.54917127 -25.91552734 49.49560547 C-31.75172169 55.59708137 -35.79477359 62.37773276 -35.78337097 70.90499878 C-35.78448883 72.05675598 -35.78560669 73.20851318 -35.78675842 74.39517212 C-35.78308762 75.66049774 -35.77941681 76.92582336 -35.77563477 78.22949219 C-35.77539259 79.57515463 -35.77566997 80.92081724 -35.77642822 82.26647949 C-35.77753535 85.16877687 -35.77609897 88.07105844 -35.77306175 90.97335434 C-35.76942068 95.58327247 -35.77859006 100.19310889 -35.79084778 104.80300903 C-35.79286971 105.58274861 -35.79489164 106.36248819 -35.79697484 107.16585624 C-35.8011441 108.76102075 -35.80534686 110.35618517 -35.80958235 111.9513495 C-35.83763317 122.67985313 -35.857987 133.40818251 -35.84057617 144.13671875 C-35.82892515 151.37533788 -35.83889371 158.61359031 -35.87263376 165.85214436 C-35.88961331 169.67316307 -35.89634907 173.49352139 -35.87651634 177.31454086 C-35.73584604 206.67993604 -40.01889347 230.39288488 -60.66552734 252.37060547 C-67.79238072 259.37060547 -67.79238072 259.37060547 -70.66552734 259.37060547 C-70.66552734 260.03060547 -70.66552734 260.69060547 -70.66552734 261.37060547 C-70.10220703 261.62068359 -69.53888672 261.87076172 -68.95849609 262.12841797 C-57.10880094 268.54784396 -49.04355172 280.93437069 -43.29052734 292.74560547 C-42.96874512 293.39207031 -42.64696289 294.03853516 -42.31542969 294.70458984 C-37.247713 305.69223575 -36.22083895 317.44829729 -36.29663086 329.39331055 C-36.29415423 330.73051256 -36.29030717 332.06771261 -36.28521729 333.40490723 C-36.27696811 336.25253156 -36.27760963 339.09995528 -36.2854023 341.94758034 C-36.297117 346.45852815 -36.28471649 350.96922492 -36.26878357 355.48014832 C-36.23282148 366.67364048 -36.22636055 377.86712413 -36.22888184 389.06066895 C-36.2305964 397.78576143 -36.22340549 406.51064475 -36.18890327 415.23567885 C-36.17219202 419.71251983 -36.17382968 424.18884793 -36.189726 428.66568625 C-36.19691574 432.10882836 -36.17826773 435.55175576 -36.16381836 438.99487305 C-36.17356186 440.22157211 -36.18330536 441.44827118 -36.19334412 442.71214294 C-36.10675779 453.06271459 -33.52907525 460.08864773 -26.45068359 467.64794922 C-19.54833695 474.30863821 -11.97213407 475.67288506 -2.69287109 475.57373047 C-1.20132585 475.58427164 0.29021123 475.59602674 1.78173828 475.60888672 C4.09472413 475.61920706 6.40654797 475.62052293 8.71948242 475.60058594 C23.31904422 475.50468883 23.31904422 475.50468883 27.83056641 479.29248047 C32.42526689 484.94087981 31.62550643 490.03690905 31.70947266 497.12060547 C31.76554687 498.89177734 31.76554687 498.89177734 31.82275391 500.69873047 C31.92175603 510.4669399 31.92175603 510.4669399 29.12353516 514.07373047 C23.95067256 518.33373496 19.34720896 518.67899591 12.80712891 518.67138672 C11.98176132 518.67567184 11.15639374 518.67995697 10.30601501 518.68437195 C8.55859287 518.69010464 6.81114686 518.69062333 5.0637207 518.6862793 C2.43673893 518.6831528 -0.18907803 518.70647349 -2.81591797 518.73193359 C-16.0362205 518.78157893 -28.82036296 517.8527186 -40.66552734 511.37060547 C-41.50212891 510.92330078 -42.33873047 510.47599609 -43.20068359 510.01513672 C-60.02827592 500.20912968 -72.35947897 484.10630339 -77.66552734 465.37060547 C-79.48250174 456.78353946 -79.94630958 448.48733873 -79.9050293 439.73022461 C-79.90812107 437.72340789 -79.91121909 435.71659118 -79.91455209 433.70977485 C-79.91636306 431.57734759 -79.91345828 429.44497128 -79.90935707 427.31254768 C-79.90167143 422.84269974 -79.91248682 418.37300861 -79.92655945 413.90318298 C-79.96408631 401.20131749 -79.98250323 388.49952605 -79.97094727 375.79760742 C-79.96470554 368.76302958 -79.97643346 361.7287086 -80.00739259 354.69419378 C-80.0259007 350.26354788 -80.02287161 345.83363805 -80.00322497 341.40300572 C-79.99464685 337.98199759 -80.01884091 334.56134376 -80.0378418 331.14038086 C-80.02607407 329.93427155 -80.01430634 328.72816223 -80.00218201 327.48550415 C-80.13432446 315.28240084 -83.67771346 305.3268647 -92.25927734 296.53076172 C-99.15306811 290.34201773 -105.72087953 286.29778259 -115.10302734 285.93310547 C-121.52295984 285.50559303 -125.54760011 284.71749781 -129.97802734 279.80810547 C-133.71794524 274.40600185 -132.92555981 268.65884035 -132.96069336 262.3046875 C-132.97785426 260.14241365 -133.02173276 257.98169039 -133.06591797 255.81982422 C-133.0760501 254.43572084 -133.08456458 253.0516045 -133.09130859 251.66748047 C-133.10589111 250.41290039 -133.12047363 249.15832031 -133.13549805 247.86572266 C-132.45228628 242.78475658 -130.2923548 239.62241751 -126.25927734 236.51904297 C-123.36312921 235.23671232 -121.32011055 235.03893766 -118.16552734 234.99560547 C-107.55191684 234.29150846 -98.55990572 230.5391589 -90.89599609 223.11279297 C-84.73981788 215.54425163 -80.54646737 206.49646226 -80.53422546 196.68231201 C-80.53021729 195.52195435 -80.52620911 194.36159668 -80.52207947 193.16607666 C-80.52287254 191.2616983 -80.52287254 191.2616983 -80.52368164 189.31884766 C-80.52064849 187.96492398 -80.5171266 186.61100132 -80.51315308 185.25708008 C-80.5052704 182.34115231 -80.50012129 179.42523675 -80.49686241 176.50930023 C-80.49093395 171.88386837 -80.47437223 167.25851275 -80.45552063 162.63311768 C-80.44918296 161.04623036 -80.44285734 159.459343 -80.43654346 157.8724556 C-80.43337765 157.07760584 -80.43021184 156.28275609 -80.4269501 155.46381998 C-80.38498927 144.70001497 -80.35195634 133.93624455 -80.33959961 123.17236328 C-80.33117409 115.90746594 -80.3085137 108.6427569 -80.27024394 101.37795377 C-80.25062281 97.54104494 -80.23803142 93.70441666 -80.24307823 89.86745453 C-80.28244508 53.08916866 -80.28244508 53.08916866 -71.60302734 37.62060547 C-71.21945068 36.91943604 -70.83587402 36.2182666 -70.44067383 35.49584961 C-66.44828483 28.50537534 -61.50003334 22.87171112 -55.66552734 17.37060547 C-54.49763672 16.24912109 -54.49763672 16.24912109 -53.30615234 15.10498047 C-48.56383885 10.93556391 -43.50412333 8.08382719 -37.79052734 5.49560547 C-37.16702393 5.20903076 -36.54352051 4.92245605 -35.90112305 4.62719727 C-24.48404967 -0.20886836 -12.18055402 -0.00221505 0 0 Z " fill="#FCFCFD" transform="translate(296.66552734375,434.62939453125)"/>
<path d="M0 0 C2.80011957 2.86678908 4.4948756 4.82238365 4.77734375 8.87109375 C4.70644531 9.61488281 4.63554688 10.35867188 4.5625 11.125 C4.50964844 11.86621094 4.45679688 12.60742188 4.40234375 13.37109375 C2.26789164 19.73154653 -5.40925584 23.87551117 -10.5625 27.6875 C-11.43511475 28.3367041 -12.30772949 28.9859082 -13.20678711 29.65478516 C-15.92486797 31.67208207 -18.64877517 33.68122547 -21.375 35.6875 C-22.24737305 36.33041992 -23.11974609 36.97333984 -24.01855469 37.63574219 C-26.48712988 39.45078815 -28.96083505 41.25851263 -31.4375 43.0625 C-32.19248779 43.61550781 -32.94747559 44.16851563 -33.7253418 44.73828125 C-34.42570557 45.24488281 -35.12606934 45.75148438 -35.84765625 46.2734375 C-36.45875244 46.7173584 -37.06984863 47.1612793 -37.69946289 47.61865234 C-39.375 48.6875 -39.375 48.6875 -42.375 49.6875 C-42.375 50.3475 -42.375 51.0075 -42.375 51.6875 C-41.50609131 52.09585083 -41.50609131 52.09585083 -40.61962891 52.51245117 C-38.3865667 53.68144491 -36.47876928 54.98118391 -34.4609375 56.48828125 C-33.70828613 57.04708984 -32.95563477 57.60589844 -32.18017578 58.18164062 C-31.37821777 58.78169922 -30.57625977 59.38175781 -29.75 60 C-24.63175748 63.8121535 -19.51058627 67.6119263 -14.296875 71.29296875 C-13.49072754 71.86426514 -12.68458008 72.43556152 -11.85400391 73.02416992 C-10.32436516 74.10500676 -8.7903979 75.17975275 -7.25146484 76.24731445 C-2.38051867 79.70210516 1.89859033 83.23468067 4.625 88.6875 C5.02637875 92.86183895 4.88694303 95.18301713 2.9375 98.9375 C0.02501138 102.40099998 -1.95317794 104.33284673 -6.53564453 105.00390625 C-13.81895782 105.36066345 -17.55365827 103.30756689 -23.125 98.8125 C-24.70403901 97.60496111 -26.2834698 96.39793439 -27.86328125 95.19140625 C-28.6310791 94.59215332 -29.39887695 93.99290039 -30.18994141 93.37548828 C-33.16813628 91.07479115 -36.23174121 88.91004082 -39.3125 86.75 C-44.97808041 82.72205448 -50.58788809 78.61901072 -56.1875 74.5 C-56.96407959 73.92967041 -57.74065918 73.35934082 -58.54077148 72.77172852 C-77.88095747 58.50924293 -77.88095747 58.50924293 -78.78125 53.3671875 C-79.05336854 48.80920191 -79.00027354 46.59093706 -76.3203125 42.71875 C-73.19746117 39.25278901 -69.53714214 36.7223222 -65.6875 34.125 C-64.16075281 33.07133407 -62.63473464 32.01661115 -61.109375 30.9609375 C-60.32626953 30.42178711 -59.54316406 29.88263672 -58.73632812 29.32714844 C-54.93285492 26.68610976 -51.18520854 23.96932877 -47.4375 21.25 C-45.94536099 20.16920389 -44.45317313 19.08847521 -42.9609375 18.0078125 C-41.84090332 17.19618652 -41.84090332 17.19618652 -40.69824219 16.36816406 C-38.27308726 14.61377498 -35.84406715 12.86485217 -33.4140625 11.1171875 C-32.60187256 10.53251709 -31.78968262 9.94784668 -30.95288086 9.34545898 C-29.40229529 8.22943646 -27.85106415 7.11431015 -26.29907227 6.00024414 C-23.30516069 3.84321471 -20.35813806 1.67400136 -17.4765625 -0.6328125 C-12.26457487 -4.79852752 -5.11095405 -4.07122565 0 0 Z " fill="#FAFAFD" transform="translate(574.375,480.3125)"/>
<path d="M0 0 C5.47011435 2.82500424 10.35841889 6.2993296 15.3125 9.9375 C16.90484719 11.0977945 18.49729814 12.2579466 20.08984375 13.41796875 C20.90050293 14.01013184 21.71116211 14.60229492 22.54638672 15.21240234 C25.71526665 17.52111268 28.89800413 19.81025365 32.08105469 22.09936523 C39.78859571 27.64541514 47.44248431 33.25044869 55 39 C55.87785156 39.66 56.75570312 40.32 57.66015625 41 C58.47355469 41.61875 59.28695312 42.2375 60.125 42.875 C60.82882812 43.40867187 61.53265625 43.94234375 62.2578125 44.4921875 C64.69621624 46.60255486 65.90758629 48.3058226 66.3359375 51.5234375 C66.35527344 52.93496094 66.35527344 52.93496094 66.375 54.375 C66.40335938 55.31085937 66.43171875 56.24671875 66.4609375 57.2109375 C65.66938485 62.00050186 62.89090428 64.29912239 59.1796875 67.21875 C58.08297553 67.98614579 56.98107359 68.74616006 55.875 69.5 C54.61668098 70.37818091 53.35889452 71.25712528 52.1015625 72.13671875 C51.10237793 72.831604 51.10237793 72.831604 50.08300781 73.54052734 C46.44300339 76.09091956 42.84902245 78.70476188 39.25 81.3125 C37.72267724 82.41539366 36.19533326 83.51825792 34.66796875 84.62109375 C31.5192124 86.89743874 28.37684595 89.18228271 25.23828125 91.47265625 C21.49291335 94.20333817 17.73347773 96.9131412 13.95800781 99.60205078 C12.73186726 100.47747233 11.50925811 101.35788523 10.29199219 102.24560547 C5.1397027 105.98726497 0.6611311 109.16951601 -5.921875 108.63671875 C-9.74197963 107.46627316 -12.41347249 104.97142743 -15 102 C-16.14938555 99.70122891 -16.19841264 98.24537319 -16.25 95.6875 C-16.27578125 94.92824219 -16.3015625 94.16898438 -16.328125 93.38671875 C-15.79860406 89.53508428 -14.32452021 87.13077914 -11.35595703 84.59643555 C-9.25039861 83.01055694 -7.10600386 81.49864708 -4.9375 80 C-3.31490709 78.85444577 -1.69251729 77.70860379 -0.0703125 76.5625 C0.76467773 75.97726562 1.59966797 75.39203125 2.45996094 74.7890625 C6.56402693 71.89838626 10.62382729 68.94704538 14.6875 66 C16.12856415 64.95786012 17.56995515 63.91617201 19.01171875 62.875 C19.6773584 62.39289062 20.34299805 61.91078125 21.02880859 61.4140625 C22.35759214 60.46084052 23.69409927 59.51830542 25.03759766 58.5859375 C28.56209401 56.30201018 28.56209401 56.30201018 31 53 C29.98679687 52.67128906 29.98679687 52.67128906 28.953125 52.3359375 C25.10989638 50.59733408 22.06866137 48.2034137 18.75 45.625 C12.92641193 41.16835255 7.02204909 36.87177206 1 32.6875 C-13.83675631 22.32648737 -13.83675631 22.32648737 -16 18 C-16.57031437 13.32529208 -16.43841751 9.87683502 -14.3125 5.625 C-9.96881738 0.69433324 -6.61667403 -0.79856411 0 0 Z " fill="#FBFAFD" transform="translate(698,477)"/>
<path d="M0 0 C3.18500291 1.62145603 5.22111096 2.97328264 7.375 5.8125 C9.08791571 11.807705 7.62371937 16.94990773 5.31640625 22.51953125 C5.03003799 23.23805771 4.74366974 23.95658417 4.44862366 24.69688416 C3.49802921 27.07353639 2.53039991 29.44284862 1.5625 31.8125 C0.88162332 33.50447012 0.20179469 35.19686234 -0.47705078 36.88964844 C-2.27525772 41.36494535 -4.08813884 45.83415025 -5.90460205 50.30206299 C-7.67205892 54.65526386 -9.42722867 59.01340888 -11.18359375 63.37109375 C-13.27975733 68.56924616 -15.37966801 73.76579915 -17.49291992 78.95703125 C-20.86394496 87.23890431 -24.21812974 95.52600133 -27.50393677 103.84213257 C-29.04158725 107.73189699 -30.58853322 111.61793523 -32.13604736 115.50378418 C-32.87208253 117.35962037 -33.60357559 119.21726516 -34.33026123 121.07678223 C-35.33874802 123.65623412 -36.36294461 126.22892791 -37.390625 128.80078125 C-37.68266815 129.56024551 -37.9747113 130.31970978 -38.27560425 131.10218811 C-40.34848554 136.227487 -42.84906694 140.42453347 -48 143 C-53.29808682 143.34741553 -56.75766415 143.53527987 -61 140 C-63.32582714 137.17129131 -64.83414797 135.11950121 -65.375 131.46875 C-64.81798085 126.3163229 -62.73920723 122.03647551 -60.6875 117.3125 C-57.03539552 108.83302257 -53.45993465 100.32676457 -49.984375 91.7734375 C-49.51889755 90.62944992 -49.0534201 89.48546234 -48.57383728 88.30680847 C-44.80622904 79.02744463 -41.08603018 69.72944857 -37.37890625 60.42578125 C-37.09986639 59.72567995 -36.82082653 59.02557865 -36.53333092 58.30426216 C-33.95477781 51.83438553 -31.37721735 45.36411691 -28.8059082 38.89135742 C-27.37625352 35.29287072 -25.94317814 31.69576246 -24.5079174 28.09950829 C-23.971255 26.75295621 -23.43584338 25.40590484 -22.90179634 24.05831337 C-12.49412344 -2.19966962 -12.49412344 -2.19966962 0 0 Z " fill="#FBFAFD" transform="translate(658,460)"/>
<path d="M0 0 C4.3049777 -0.07451364 8.60960734 -0.12877223 12.91503906 -0.16479492 C14.37767075 -0.17982196 15.84025782 -0.20024955 17.30273438 -0.22631836 C19.4128728 -0.26297267 21.52241226 -0.27978676 23.6328125 -0.29296875 C24.90012207 -0.3086792 26.16743164 -0.32438965 27.47314453 -0.34057617 C32.2033425 0.1162026 35.41370966 1.82161289 39.1875 4.625 C43.90339021 10.80444235 44.48311505 18.2179847 44.375 25.75 C44.38660156 26.57371094 44.39820313 27.39742187 44.41015625 28.24609375 C44.3813945 34.19977632 43.21415509 37.40233075 39.30859375 41.984375 C33.95823091 47.03315162 30.23529566 48.04493972 23 48 C21.56637616 48.02292977 20.13278324 48.04783794 18.69921875 48.07421875 C-9.93824876 48.45746672 -9.93824876 48.45746672 -18.3125 45.0625 C-21.10977708 43.90343468 -21.10977708 43.90343468 -24.5625 43 C-27.29362034 42.20549227 -29.53706635 41.37924285 -32 40 C-32 39.34 -32 38.68 -32 38 C-32.763125 37.896875 -33.52625 37.79375 -34.3125 37.6875 C-37.27011154 36.9309017 -37.99230999 36.18227175 -40 34 C-40.680625 33.67 -41.36125 33.34 -42.0625 33 C-44 32 -44 32 -46 29 C-46.66 28.690625 -47.32 28.38125 -48 28.0625 C-50.50327501 26.73263515 -50.7861938 25.50347528 -52 23 C-52.70125 22.484375 -53.4025 21.96875 -54.125 21.4375 C-54.74375 20.963125 -55.3625 20.48875 -56 20 C-56 19.01 -56 18.02 -56 17 C-56.66 17 -57.32 17 -58 17 C-58 16.01 -58 15.02 -58 14 C-58.99 13.67 -59.98 13.34 -61 13 C-61.33 11.02 -61.66 9.04 -62 7 C-60.1316777 9.31671965 -58.27288927 11.63449805 -56.4921875 14.01953125 C-45.07040279 29.18659886 -30.54231489 40.27582187 -11.51855469 43.58984375 C-4.64741663 44.39080905 2.25258967 44.33302174 9.1628418 44.31567383 C11.82446236 44.31248567 14.48499828 44.33614364 17.14648438 44.36132812 C18.85416528 44.36359904 20.56184914 44.36430558 22.26953125 44.36328125 C23.05713333 44.372491 23.84473541 44.38170074 24.65620422 44.39118958 C30.3867299 44.34326829 34.61157227 43.35620291 38.84570312 39.17919922 C41.26361032 34.61442772 40.51103032 29.17137026 40.5 24.125 C40.52835937 22.95324219 40.55671875 21.78148437 40.5859375 20.57421875 C40.73873372 13.41651719 40.73873372 13.41651719 37.59375 7.2421875 C33.53604395 3.73447173 30.538801 3.80144515 25.3671875 3.68359375 C24.61535187 3.66281265 23.86351624 3.64203156 23.08889771 3.62062073 C20.68435915 3.55517295 18.27971033 3.49626262 15.875 3.4375 C14.24608229 3.39431023 12.61717578 3.35069579 10.98828125 3.30664062 C6.99230085 3.19949649 2.99620941 3.09821567 -1 3 C-0.67 2.01 -0.34 1.02 0 0 Z " fill="#458CFB" transform="translate(287,908)"/>
<path d="M0 0 C0.99 0.495 0.99 0.495 2 1 C4.14655085 14.09581389 3.1638285 28.06397489 3.16796875 41.28125 C3.17118799 43.7092694 3.17455254 46.13728861 3.17805481 48.56530762 C3.18400791 53.6249232 3.18589833 58.68452179 3.18530273 63.74414062 C3.18520057 70.22134036 3.19892558 76.69843181 3.21607494 83.17560577 C3.22719063 88.17704774 3.22922218 93.17846332 3.22869301 98.17991638 C3.22987096 100.5688871 3.23428234 102.95785855 3.24202538 105.34681702 C3.25182953 108.67985718 3.24894692 112.01265908 3.24291992 115.34570312 C3.24853943 116.32555176 3.25415894 117.30540039 3.25994873 118.31494141 C3.23565454 123.60588302 2.73970227 127.99348724 1 133 C0.67 133 0.34 133 0 133 C0 89.11 0 45.22 0 0 Z " fill="#3E82FC" transform="translate(260,754)"/>
<path d="M0 0 C0.66 0 1.32 0 2 0 C1.67 44.88 1.34 89.76 1 136 C0.34 136 -0.32 136 -1 136 C-1.02332838 118.41545882 -1.04097887 100.83092246 -1.05181217 83.24636936 C-1.05697526 75.08212836 -1.0640182 66.91789695 -1.07543945 58.75366211 C-1.0853859 51.64028716 -1.09185333 44.52691915 -1.09408849 37.41353744 C-1.09539567 33.64474276 -1.09848194 29.87596797 -1.10573006 26.10717964 C-1.11374316 21.90681184 -1.11399116 17.70647892 -1.11352539 13.50610352 C-1.11712067 12.24734909 -1.12071594 10.98859467 -1.12442017 9.69169617 C-1.1230455 8.55441071 -1.12167084 7.41712524 -1.12025452 6.24537659 C-1.12117631 5.25076196 -1.1220981 4.25614733 -1.12304783 3.23139286 C-1 1 -1 1 0 0 Z " fill="#4B70FB" transform="translate(261,499)"/>
<path d="M0 0 C2.375 0.625 2.375 0.625 5 2 C6.91200337 6.40382003 7.24678916 10.24161392 7.23046875 15.0078125 C7.22853516 16.32394531 7.22660156 17.64007812 7.22460938 18.99609375 C7.21530396 20.01292236 7.21530396 20.01292236 7.20581055 21.05029297 C7.18749028 23.12610096 7.18530167 25.20146308 7.18554688 27.27734375 C7.13671897 38.3341522 7.13671897 38.3341522 6 42 C5.34 42 4.68 42 4 42 C3.7525 42.598125 3.505 43.19625 3.25 43.8125 C1.55133949 46.78515589 -0.42463704 48.45778205 -3.6796875 49.578125 C-6.88979462 50.16178084 -9.99023768 50.09268298 -13.25 50.0625 C-14.51328125 50.05347656 -15.7765625 50.04445313 -17.078125 50.03515625 C-18.04234375 50.02355469 -19.0065625 50.01195312 -20 50 C-20 50.66 -20 51.32 -20 52 C-23 54 -23 54 -25.89453125 54.85546875 C-29.40391275 56.14886344 -31.10835669 57.63433199 -33.6875 60.3125 C-34.43386719 61.07175781 -35.18023438 61.83101562 -35.94921875 62.61328125 C-37.96293706 64.9568658 -39.49805717 67.30603905 -41 70 C-41.33 69.01 -41.66 68.02 -42 67 C-37.80096212 58.60192424 -29.0164073 52.24149989 -20.5234375 48.6953125 C-16.41990969 47.56461908 -12.26903783 47.54600896 -8.03515625 47.328125 C-3.65732073 46.85484548 -1.43103098 45.74482478 2 43 C4.98516265 37.30862647 4.37204622 31.01843208 4.37060547 24.76269531 C4.37497358 22.63785307 4.41131686 20.51509971 4.44921875 18.390625 C4.50654866 11.25966681 4.52043071 5.77114276 0 0 Z " fill="#8F40F2" transform="translate(1089,672)"/>
<path d="M0 0 C3.54679448 2.66777956 6.24020707 5.36050743 8.9375 8.875 C18.56450831 20.82906661 29.6779091 30.89995363 42 40 C42.83789062 40.63292969 43.67578125 41.26585937 44.5390625 41.91796875 C54.87043421 49.4678173 66.47810461 55.48832408 78 61 C77.01 61.66 76.02 62.32 75 63 C73.09947852 62.04973926 71.19927516 61.09883636 69.30078125 60.14453125 C67.80438669 59.40014482 66.30198623 58.66767132 64.79296875 57.94921875 C64.09816406 57.61535156 63.40335938 57.28148437 62.6875 56.9375 C62.05199219 56.63714844 61.41648437 56.33679688 60.76171875 56.02734375 C58.84264514 54.90823874 57.55583976 53.57275106 56 52 C53.40084462 50.80972016 53.40084462 50.80972016 51 50 C51 49.34 51 48.68 51 48 C50.01 48 49.02 48 48 48 C47.34 47.34 46.68 46.68 46 46 C45.319375 45.67 44.63875 45.34 43.9375 45 C42 44 42 44 41 42 C39.67532254 41.3162955 38.34136367 40.65035814 37 40 C35 38 35 38 34 36 C33.34 36 32.68 36 32 36 C31.67 35.34 31.34 34.68 31 34 C29.515 33.505 29.515 33.505 28 33 C28 32.34 28 31.68 28 31 C27.34 31 26.68 31 26 31 C24.4140625 29.35546875 24.4140625 29.35546875 22.625 27.1875 C20.76433718 24.93749143 19.13127297 23.09649715 16.7734375 21.36328125 C16.18820312 20.91339844 15.60296875 20.46351563 15 20 C15 19.34 15 18.68 15 18 C14.01 17.67 13.02 17.34 12 17 C12 16.34 12 15.68 12 15 C11.34 15 10.68 15 10 15 C9.02656679 13.59020018 8.06053778 12.17433313 7.14453125 10.7265625 C4.79813593 7.18694908 2.00025261 4.00025261 -1 1 C-0.67 0.67 -0.34 0.34 0 0 Z " fill="#5775FC" transform="translate(463,894)"/>
<path d="M0 0 C4.87458106 -0.12405942 9.74823358 -0.21455231 14.62402344 -0.2746582 C16.28076189 -0.299726 17.93739059 -0.3337899 19.59375 -0.37719727 C21.98204684 -0.43819643 24.36887593 -0.46628526 26.7578125 -0.48828125 C27.49242706 -0.51408768 28.22704163 -0.5398941 28.98391724 -0.56648254 C32.93206792 -0.56861177 35.42489287 -0.04565516 38.45263672 2.40551758 C41.99535413 6.01376542 42.14182624 7.72594226 42.31640625 12.6640625 C42.35830078 13.78554688 42.40019531 14.90703125 42.44335938 16.0625 C42.48267578 17.238125 42.52199219 18.41375 42.5625 19.625 C42.60568359 20.80835938 42.64886719 21.99171875 42.69335938 23.2109375 C42.79967426 26.14050328 42.90170642 29.07015588 43 32 C42.34 32 41.68 32 41 32 C38.76378447 26.64531204 38.82615696 21.99282125 39 16.3125 C39.05105355 14.62135106 39.09310774 12.92990003 39.125 11.23828125 C39.14820313 10.49618408 39.17140625 9.75408691 39.1953125 8.98950195 C39.1261022 6.67917036 39.1261022 6.67917036 37 4 C30.31519113 1.6630343 23.83523189 1.73098998 16.8125 1.8125 C15.21245117 1.8134668 15.21245117 1.8134668 13.58007812 1.81445312 C8.8986594 1.84080257 4.58118562 1.961294 0 3 C0 2.01 0 1.02 0 0 Z " fill="#7F4EF6" transform="translate(864,668)"/>
<path d="M0 0 C0.495 0.99 0.495 0.99 1 2 C0.64397705 2.48017578 0.2879541 2.96035156 -0.07885742 3.45507812 C-11.35846316 18.79519762 -20.58457958 34.93780739 -29 52 C-30.65 52 -32.3 52 -34 52 C-33.4225 51.505 -32.845 51.01 -32.25 50.5 C-29.3885314 47.32059045 -27.80885943 43.82710452 -26 40 C-24.76014132 37.49490748 -23.50454291 34.9977638 -22.25 32.5 C-21.62995713 31.2605423 -21.01014634 30.02096846 -20.390625 28.78125 C-19.93171875 27.8634375 -19.4728125 26.945625 -19 26 C-18.34 26 -17.68 26 -17 26 C-17 25.01 -17 24.02 -17 23 C-16.34 23 -15.68 23 -15 23 C-15 22.01 -15 21.02 -15 20 C-14.34 20 -13.68 20 -13 20 C-12.87625 19.195625 -12.7525 18.39125 -12.625 17.5625 C-12.41875 16.716875 -12.2125 15.87125 -12 15 C-11.34 14.67 -10.68 14.34 -10 14 C-9.67 13.01 -9.34 12.02 -9 11 C-8.34 11 -7.68 11 -7 11 C-6.67 9.68 -6.34 8.36 -6 7 C-5.34 7 -4.68 7 -4 7 C-3.71125 6.21625 -3.4225 5.4325 -3.125 4.625 C-2 2 -2 2 0 0 Z " fill="#8247F7" transform="translate(733,312)"/>
<path d="M0 0 C1.10082193 3.30246578 0.82020669 3.81360612 0 7 C-0.03563002 8.93201624 -0.0153056 10.86540915 0.04296875 12.796875 C0.06423828 13.9209375 0.08550781 15.045 0.10742188 16.203125 C0.16046137 18.55238672 0.22540922 20.90141221 0.30273438 23.25 C0.42031833 30.87989209 -0.02162707 36.62752633 -5.37768555 42.51416016 C-10.76480571 47.41026447 -15.9227004 48.28309198 -23 48 C-23 47.67 -23 47.34 -23 47 C-22.41992188 46.90203125 -21.83984375 46.8040625 -21.2421875 46.703125 C-14.699165 45.45066525 -10.30848208 43.4956563 -5.6875 38.5 C-2.81535442 34.24496951 -2.85719962 30.44290258 -2.75390625 25.37109375 C-2.72103516 24.08912109 -2.68816406 22.80714844 -2.65429688 21.48632812 C-2.60679416 19.45651 -2.5622925 17.42672666 -2.52319336 15.39672852 C-2.48348589 13.42966304 -2.43136656 11.46286043 -2.37890625 9.49609375 C-2.3538501 8.32232178 -2.32879395 7.1485498 -2.30297852 5.93920898 C-2 3 -2 3 0 0 Z " fill="#466FFA" transform="translate(373,783)"/>
<path d="M0 0 C1.01438896 0.00137466 1.01438896 0.00137466 2.04927063 0.0027771 C3.47050041 0.00879182 4.89171877 0.02447387 6.31274414 0.04931641 C8.49217123 0.08600298 10.66990462 0.09033429 12.84960938 0.08984375 C23.50536573 0.16552198 23.50536573 0.16552198 25.80078125 2.4609375 C23.74388665 4.5178321 19.44522127 3.71840826 16.609375 3.77734375 C15.78953629 3.79812485 14.96969757 3.81890594 14.12501526 3.84031677 C11.49619224 3.90590244 8.86726621 3.96473876 6.23828125 4.0234375 C4.46027564 4.06661417 2.6822806 4.11022817 0.90429688 4.15429688 C-3.46343509 4.26159293 -7.83127102 4.36283454 -12.19921875 4.4609375 C-8.14889438 0.56641339 -5.56430452 -0.0362959 0 0 Z " fill="#8159F6" transform="translate(947.19921875,907.5390625)"/>
<path d="M0 0 C0.33 0 0.66 0 1 0 C0.97381592 1.13953125 0.94763184 2.2790625 0.9206543 3.453125 C0.82966888 7.70959586 0.77257642 11.96598201 0.7253418 16.22314453 C0.70030711 18.06020599 0.66626855 19.89716893 0.62280273 21.73388672 C0.56165963 24.38533927 0.53368043 27.03546734 0.51171875 29.6875 C0.48591232 30.49928711 0.4601059 31.31107422 0.43351746 32.14746094 C0.43083197 37.69546781 1.71100371 40.92003577 5.02107239 45.38208008 C5.3441185 45.91599365 5.66716461 46.44990723 6 47 C5.67 47.66 5.34 48.32 5 49 C0.71838762 45.33004653 -2.42392499 40.55148992 -3.33740234 34.91992188 C-3.42908358 32.76617254 -3.40064336 30.65379489 -3.3125 28.5 C-3.29558105 27.72970459 -3.27866211 26.95940918 -3.26123047 26.16577148 C-3.19917302 23.77558241 -3.10330444 21.38873167 -3 19 C-2.97244629 18.2280127 -2.94489258 17.45602539 -2.91650391 16.66064453 C-2.43492268 3.65238402 -2.43492268 3.65238402 0 0 Z " fill="#5985FC" transform="translate(336,778)"/>
<path d="M0 0 C1.81951172 0.02030273 1.81951172 0.02030273 3.67578125 0.04101562 C6.65931206 0.07625418 9.64192458 0.12552475 12.625 0.1875 C13.12 4.1475 13.12 4.1475 13.625 8.1875 C11.625 5.1875 11.625 5.1875 11.625 3.1875 C7.77097871 3.09979617 3.91721709 3.04687265 0.0625 3 C-1.02353516 2.97486328 -2.10957031 2.94972656 -3.22851562 2.92382812 C-9.42346255 2.86733925 -13.90539208 3.19765694 -19.375 6.1875 C-19.375 5.1975 -19.375 4.2075 -19.375 3.1875 C-13.39328146 -0.92628116 -7.02117551 -0.14833469 0 0 Z " fill="#5679FA" transform="translate(394.375,777.8125)"/>
<path d="M0 0 C0.721875 0.11085938 1.44375 0.22171875 2.1875 0.3359375 C1.8575 1.3259375 1.5275 2.3159375 1.1875 3.3359375 C0.59453125 3.46226562 0.0015625 3.58859375 -0.609375 3.71875 C-3.85976061 4.62931902 -4.99603622 6.5869745 -7.0625 9.2109375 C-7.84753906 10.20480469 -8.63257813 11.19867188 -9.44140625 12.22265625 C-12.33526261 16.02233256 -15.16630859 19.86061342 -17.94921875 23.7421875 C-20.51569963 27.31481498 -23.15881663 30.82784851 -25.8125 34.3359375 C-26.3075 32.8509375 -26.3075 32.8509375 -26.8125 31.3359375 C-25.90722656 29.54931641 -25.90722656 29.54931641 -24.453125 27.5625 C-23.91945313 26.82563965 -23.38578125 26.0887793 -22.8359375 25.32958984 C-22.25070312 24.54793457 -21.66546875 23.7662793 -21.0625 22.9609375 C-20.17691406 21.76331787 -20.17691406 21.76331787 -19.2734375 20.54150391 C-17.47097201 18.12548458 -15.64753767 15.72728975 -13.8125 13.3359375 C-13.27818359 12.63791016 -12.74386719 11.93988281 -12.19335938 11.22070312 C-10.75503612 9.36509996 -9.2923447 7.53352128 -7.8125 5.7109375 C-7.38098633 5.16131348 -6.94947266 4.61168945 -6.50488281 4.04541016 C-4.38705371 1.51637611 -3.34149165 0.39912261 0 0 Z " fill="#8646F7" transform="translate(779.8125,317.6640625)"/>
<path d="M0 0 C1.32 0.33 2.64 0.66 4 1 C4 1.66 4 2.32 4 3 C4.99 3 5.98 3 7 3 C7 3.66 7 4.32 7 5 C8.32 5.33 9.64 5.66 11 6 C11 6.66 11 7.32 11 8 C11.99 8 12.98 8 14 8 C14 8.66 14 9.32 14 10 C15.32 10.33 16.64 10.66 18 11 C18 11.66 18 12.32 18 13 C19.32 13.33 20.64 13.66 22 14 C22 14.66 22 15.32 22 16 C22.99 16 23.98 16 25 16 C25 16.66 25 17.32 25 18 C26.32 18.33 27.64 18.66 29 19 C29 19.66 29 20.32 29 21 C29.99 21 30.98 21 32 21 C33.35573748 22.31054623 34.68612831 23.64748503 36 25 C37.65261839 26.02304948 39.31791365 27.02616054 41 28 C41.66 28.66 42.32 29.32 43 30 C42.01 30.495 42.01 30.495 41 31 C31.3060437 24.18968893 21.64743205 17.33572846 12.06689453 10.36645508 C11.36032715 9.8536499 10.65375977 9.34084473 9.92578125 8.8125 C9.2601416 8.32910156 8.59450195 7.84570312 7.90869141 7.34765625 C6.12985659 6.09168692 4.31905011 4.91585095 2.48046875 3.75 C1.66191406 3.1725 0.84335937 2.595 0 2 C0 1.34 0 0.68 0 0 Z " fill="#7F4BF4" transform="translate(706,481)"/>
<path d="M0 0 C0.66 0.33 1.32 0.66 2 1 C-5.4751274 7.09317107 -12.98199111 13.11658502 -20.8125 18.75 C-21.40434082 19.17974121 -21.99618164 19.60948242 -22.60595703 20.05224609 C-26.75424186 23 -26.75424186 23 -29 23 C-27.47263563 18.84631398 -24.87152804 17.2687417 -21.25 14.875 C-20.08384268 14.09362974 -18.91850861 13.31102974 -17.75390625 12.52734375 C-17.14434082 12.11983887 -16.53477539 11.71233398 -15.90673828 11.29248047 C-12.62432368 9.06749931 -9.4077768 6.75108887 -6.1875 4.4375 C-5.57100586 3.99583496 -4.95451172 3.55416992 -4.31933594 3.09912109 C-2.87889222 2.06700829 -1.43934117 1.03364981 0 0 Z " fill="#7A4BF8" transform="translate(742,554)"/>
<path d="M0 0 C0.495 0.99 0.495 0.99 1 2 C-5.51133745 9.14146688 -13.30308672 14.13795842 -22.8125 16.125 C-23.60269531 16.29257812 -24.39289062 16.46015625 -25.20703125 16.6328125 C-25.79871094 16.75398438 -26.39039063 16.87515625 -27 17 C-27.33 16.34 -27.66 15.68 -28 15 C-29.98 15 -31.96 15 -34 15 C-34 14.67 -34 14.34 -34 14 C-33.20078125 13.98582031 -32.4015625 13.97164063 -31.578125 13.95703125 C-18.40082765 13.38477773 -9.24603117 9.40947111 0 0 Z " fill="#9450F4" transform="translate(820,305)"/>
<path d="M0 0 C0 0.66 0 1.32 0 2 C-2.76264289 2.59732819 -5.16032769 3 -8 3 C-8.4640625 3.928125 -8.4640625 3.928125 -8.9375 4.875 C-9.625 6.25 -10.3125 7.625 -11 9 C-11.15720097 11.9148537 -11.25855654 14.80939636 -11.31640625 17.7265625 C-11.33718735 18.58937836 -11.35796844 19.45219421 -11.37937927 20.34115601 C-11.44486034 23.10235493 -11.50375298 25.86365038 -11.5625 28.625 C-11.6056866 30.49480172 -11.64930093 32.36459362 -11.69335938 34.234375 C-11.80054024 38.82281728 -11.90181175 43.41135683 -12 48 C-12.33 48 -12.66 48 -13 48 C-13.09902133 42.25257371 -13.17154082 36.50564608 -13.21972656 30.75756836 C-13.23981774 28.80305327 -13.26709589 26.8485981 -13.30175781 24.89428711 C-13.35038601 22.08171792 -13.3729936 19.26994473 -13.390625 16.45703125 C-13.41127014 15.58601273 -13.43191528 14.7149942 -13.45318604 13.81758118 C-13.45471006 9.67879969 -13.35845694 7.56669853 -11.09667969 3.9909668 C-7.45996636 0.53761361 -5.00963255 -0.27831292 0 0 Z " fill="#3A69FC" transform="translate(435,891)"/>
<path d="M0 0 C2 1 2 1 2.81640625 2.79296875 C6.58629118 14.89212823 7.01757433 25.24207904 2 37 C1.34 37 0.68 37 0 37 C-0.12375 37.639375 -0.2475 38.27875 -0.375 38.9375 C-0.58125 39.618125 -0.7875 40.29875 -1 41 C-1.99 41.495 -1.99 41.495 -3 42 C-1.96889867 38.74806503 -0.85089648 35.67197226 0.5625 32.5625 C4.17380435 23.61274575 4.1563237 13.83858499 0.65625 4.91015625 C0 3 0 3 0 0 Z " fill="#8F3CF4" transform="translate(826,261)"/>
<path d="M0 0 C-1.98 0.33 -3.96 0.66 -6 1 C-6 1.66 -6 2.32 -6 3 C-9 5 -9 5 -11.89453125 5.85546875 C-15.40391275 7.14886344 -17.10835669 8.63433199 -19.6875 11.3125 C-20.43386719 12.07175781 -21.18023438 12.83101562 -21.94921875 13.61328125 C-23.96293706 15.9568658 -25.49805717 18.30603905 -27 21 C-27.33 20.01 -27.66 19.02 -28 18 C-23.60281621 9.20563242 -14.72659663 3.45390886 -6.04296875 -0.46875 C-3.66208866 -1.08786987 -2.30198831 -0.78629713 0 0 Z " fill="#8A42F5" transform="translate(1075,721)"/>
<path d="M0 0 C0.66 0 1.32 0 2 0 C2.33 8.25 2.66 16.5 3 25 C2.34 25 1.68 25 1 25 C-0.83696979 20.30955541 -1.24287041 16.39860618 -1.1875 11.375 C-1.18105469 10.08335937 -1.17460938 8.79171875 -1.16796875 7.4609375 C-1.03663187 4.75478692 -0.81208875 2.55970374 0 0 Z " fill="#8D56F9" transform="translate(904,675)"/>
<path d="M0 0 C0.33 0 0.66 0 1 0 C1.33 4.95 1.66 9.9 2 15 C-4.93 15 -11.86 15 -19 15 C-18.67 14.01 -18.34 13.02 -18 12 C-12.06 12.33 -6.12 12.66 0 13 C0 8.71 0 4.42 0 0 Z " fill="#536DF8" transform="translate(397,727)"/>
<path d="M0 0 C0.66 0 1.32 0 2 0 C4.3214124 17.70076958 4.3214124 17.70076958 1 25 C0.34 25 -0.32 25 -1 25 C-0.67 16.75 -0.34 8.5 0 0 Z " fill="#5A74F9" transform="translate(353,675)"/>
<path d="M0 0 C0.33 0 0.66 0 1 0 C1.62256621 9.87459185 1.62256621 9.87459185 -0.625 13.9375 C-7.60606061 20 -7.60606061 20 -11 20 C-11 20.66 -11 21.32 -11 22 C-16.41176471 26 -16.41176471 26 -19 26 C-17.46848957 21.4161042 -13.82728533 19.50055152 -10 16.9375 C-4.93578886 13.58399437 -4.93578886 13.58399437 -1 9 C-0.54605448 6.72087062 -0.54605448 6.72087062 -0.375 4.3125 C-0.30023437 3.50425781 -0.22546875 2.69601562 -0.1484375 1.86328125 C-0.09945312 1.24839844 -0.05046875 0.63351562 0 0 Z " fill="#8352F7" transform="translate(764,528)"/>
<path d="M0 0 C9.57 0 19.14 0 29 0 C29 0.66 29 1.32 29 2 C27.75863281 1.98839844 26.51726563 1.97679687 25.23828125 1.96484375 C23.59635568 1.95546132 21.95442847 1.9463616 20.3125 1.9375 C19.49587891 1.92912109 18.67925781 1.92074219 17.83789062 1.91210938 C13.72248025 1.89544779 10.03686214 2.11618995 6 3 C5.67 2.67 5.34 2.34 5 2 C2.99279077 2.28674418 0.9914056 2.61866701 -1 3 C-0.67 2.01 -0.34 1.02 0 0 Z " fill="#6349F8" transform="translate(799,891)"/>
<path d="M0 0 C0.66 1.32 1.32 2.64 2 4 C-1.40437911 9.58318174 -5.17792435 15.53686167 -11.5 17.95703125 C-16.15554463 19.03085479 -19.72235938 19.56658437 -24 17 C-24 16.67 -24 16.34 -24 16 C-23.29875 15.98582031 -22.5975 15.97164062 -21.875 15.95703125 C-15.2342034 15.62318686 -9.82722895 14.87091428 -5 10 C-2.98855834 6.79150526 -1.416838 3.50803638 0 0 Z " fill="#894FF6" transform="translate(941,694)"/>
<path d="M0 0 C0 3 0 3 -2.375 5.6875 C-5 8 -5 8 -7 8 C-8.21690533 9.76529595 -8.21690533 9.76529595 -9 12 C-8.5596445 14.21491214 -8.5596445 14.21491214 -7 16 C-6.21625 16.309375 -5.4325 16.61875 -4.625 16.9375 C-1.32186344 18.27448384 -0.03459701 20.13649309 2 23 C1.67 23.66 1.34 24.32 1 25 C0.57589844 24.55269531 0.15179688 24.10539063 -0.28515625 23.64453125 C-3.33444959 20.5014135 -6.31175055 17.65892922 -9.9375 15.1875 C-11.4534375 14.1046875 -11.4534375 14.1046875 -13 13 C-13 12.34 -13 11.68 -13 11 C-11.44684614 9.62751319 -9.83114316 8.32521299 -8.1875 7.0625 C-5.29438661 4.82899976 -2.5111062 2.66127202 0 0 Z " fill="#4C85FB" transform="translate(239,683)"/>
<path d="M0 0 C1.11911712 3.35735137 1.11365586 5.88205386 1.09765625 9.41796875 C1.09443359 10.67158203 1.09121094 11.92519531 1.08789062 13.21679688 C1.07951172 14.52712891 1.07113281 15.83746094 1.0625 17.1875 C1.05748317 18.52278481 1.05292059 19.85807141 1.04882812 21.19335938 C1.03702695 24.46228473 1.02056297 27.73111991 1 31 C-2.48005431 27.51994569 -2.54268155 22.75949946 -3 18 C-2.90273816 4.84186242 -2.90273816 4.84186242 0 0 Z " fill="#8D42F4" transform="translate(930,441)"/>
<path d="M0 0 C5.28 0.33 10.56 0.66 16 1 C16 1.66 16 2.32 16 3 C17.65 3 19.3 3 21 3 C21 3.66 21 4.32 21 5 C23.97 5.495 23.97 5.495 27 6 C27 6.66 27 7.32 27 8 C27.928125 8.268125 28.85625 8.53625 29.8125 8.8125 C32.76240366 9.91148371 34.05615186 10.62418561 36 13 C31.89327663 13 29.03836669 11.0691297 25.5 9.1875 C17.25007574 4.92662172 9.24147468 2.24884793 0 1 C0 0.67 0 0.34 0 0 Z " fill="#9A43EF" transform="translate(979,435)"/>
<path d="M0 0 C0.99 0.495 0.99 0.495 2 1 C2 1.99 2 2.98 2 4 C2.66 4 3.32 4 4 4 C4.350625 5.03125 4.70125 6.0625 5.0625 7.125 C6.7139413 11.0581428 9.14162046 13.17023516 12.4765625 15.73828125 C14 17 14 17 15 19 C17.11327425 19.90725434 17.11327425 19.90725434 19.5625 20.625 C20.80193359 21.01558594 20.80193359 21.01558594 22.06640625 21.4140625 C22.70449219 21.60742188 23.34257812 21.80078125 24 22 C20.53377345 23.15540885 19.20242221 22.64647545 15.96484375 21.140625 C9.86802505 17.60131871 4.29560026 12.27596919 1 6 C0.1875 2.5625 0.1875 2.5625 0 0 Z " fill="#488CFC" transform="translate(261,887)"/>
<path d="M0 0 C3.0210714 2.0140476 4.60667426 3.63279613 6 7 C6.66 7 7.32 7 8 7 C8.33 7.99 8.66 8.98 9 10 C9.66 10.33 10.32 10.66 11 11 C11 11.99 11 12.98 11 14 C11.66 14 12.32 14 13 14 C13.680625 15.4540625 13.680625 15.4540625 14.375 16.9375 C15.65786221 20.07079582 15.65786221 20.07079582 18 21 C18 21.99 18 22.98 18 24 C18.66 24.33 19.32 24.66 20 25 C19.34 25.66 18.68 26.32 18 27 C17.28714844 25.94941406 16.57429687 24.89882813 15.83984375 23.81640625 C8.79960375 13.48363232 8.79960375 13.48363232 1.14453125 3.6015625 C0 2 0 2 0 0 Z " fill="#7647F4" transform="translate(519,305)"/>
<path d="M0 0 C1.32 0.33 2.64 0.66 4 1 C4 1.66 4 2.32 4 3 C12.13856058 5.93892465 20.31205976 8.36969958 29 8 C29.99 8.33 30.98 8.66 32 9 C32.495 10.485 32.495 10.485 33 12 C29.97710358 11.57419741 26.95722951 11.13478492 23.9375 10.6875 C23.08994141 10.56955078 22.24238281 10.45160156 21.36914062 10.33007812 C13.5147022 9.14736346 7.47511088 6.77924851 1 2 C0.67 1.34 0.34 0.68 0 0 Z " fill="#8533EF" transform="translate(1056,660)"/>
<path d="M0 0 C0.33 0 0.66 0 1 0 C0.45655077 11.23128419 -4.52060949 19.72933896 -12 28 C-12.66 28.33 -13.32 28.66 -14 29 C-12.55708233 25.97284799 -10.89343516 23.10890141 -9.18164062 20.22705078 C-5.32544247 13.69610519 -2.25754468 7.27761114 0 0 Z " fill="#5684FB" transform="translate(256,652)"/>
<path d="M0 0 C2.67456717 0.37792797 3.80611814 0.79766916 5.703125 2.77734375 C6.21359375 3.49019531 6.7240625 4.20304688 7.25 4.9375 C7.77078125 5.64777344 8.2915625 6.35804688 8.828125 7.08984375 C10 9 10 9 10 11 C10.66 11 11.32 11 12 11 C12.69937202 12.4317616 13.38412718 13.87067032 14.0625 15.3125 C14.44535156 16.11300781 14.82820312 16.91351562 15.22265625 17.73828125 C16 20 16 20 15 23 C12.50161961 20.76172497 11.934347 19.80304101 10.8125 16.4375 C9.1310854 11.53867583 6.05248503 8.01814162 2.7421875 4.1015625 C1 2 1 2 0 0 Z " fill="#8A48F4" transform="translate(926,641)"/>
<path d="M0 0 C5.41778512 0.8535679 7.85172485 4.82342917 11 9 C14.49604198 14.23065104 16.597647 18.69646961 17 25 C14.35498669 22.69580073 13.40061428 20.74430583 12.3125 17.4375 C9.7176782 10.56172705 5.1586445 5.1586445 0 0 Z " fill="#804AF5" transform="translate(906,752)"/>
<path d="M0 0 C0.70253906 0.03544922 1.40507813 0.07089844 2.12890625 0.10742188 C6.06298597 0.35655547 8.26775417 0.88387709 11.875 2.6875 C3.295 2.6875 -5.285 2.6875 -14.125 2.6875 C-14.125 2.0275 -14.125 1.3675 -14.125 0.6875 C-9.33793559 -0.31043036 -4.84975143 -0.32841545 0 0 Z " fill="#7242F4" transform="translate(874.125,739.3125)"/>
<path d="M0 0 C0.66 0.99 1.32 1.98 2 3 C1.45730469 3.94101562 0.91460938 4.88203125 0.35546875 5.8515625 C-0.36727516 7.10932463 -1.08992648 8.36713997 -1.8125 9.625 C-2.16892578 10.24246094 -2.52535156 10.85992187 -2.89257812 11.49609375 C-5.05913172 15.27265506 -7.0904299 19.08447772 -9 23 C-9.76724391 20.74080605 -10.13618605 19.43350395 -9.41088867 17.12475586 C-9.0832251 16.49448486 -8.75556152 15.86421387 -8.41796875 15.21484375 C-7.88526367 14.17166992 -7.88526367 14.17166992 -7.34179688 13.10742188 C-6.96087891 12.39134766 -6.57996094 11.67527344 -6.1875 10.9375 C-5.81818359 10.21755859 -5.44886719 9.49761719 -5.06835938 8.75585938 C-3.49568074 5.71497088 -1.90269965 2.85404947 0 0 Z " fill="#874BF5" transform="translate(750,354)"/>
<path d="M0 0 C0.33 0.99 0.66 1.98 1 3 C-3.71890538 8.40052505 -8.30358857 13.61814505 -14 18 C-14.66 17.67 -15.32 17.34 -16 17 C-13.63663826 14.02891666 -11.53764133 11.42735593 -8.5625 9.0625 C-5.25072418 6.39692434 -2.68249773 3.28168107 0 0 Z " fill="#7A4AF7" transform="translate(1028,923)"/>
<path d="M0 0 C6.84366507 -0.90048225 12.51835585 2.57798668 17.9765625 6.375 C19.625 7.6875 19.625 7.6875 22 10 C22 10.66 22 11.32 22 12 C19 11 19 11 17.1875 9.0625 C14.55827306 6.5835146 12.45921967 5.96858151 9 5 C6 4 3 3 0 2 C0 1.34 0 0.68 0 0 Z " fill="#5292FB" transform="translate(182,720)"/>
<path d="M0 0 C2.5633102 2.46077779 4.89478133 5.04139282 7.1875 7.75 C11.08970452 12.26298436 15.4666484 16.13482947 20 20 C19.34 21.32 18.68 22.64 18 24 C17.74476562 23.40445313 17.48953125 22.80890625 17.2265625 22.1953125 C15.8715656 19.77012697 14.54160469 18.59274635 12.375 16.875 C7.59738701 12.83240439 3.44306369 8.2378522 0 3 C0 2.01 0 1.02 0 0 Z " fill="#9353F7" transform="translate(1012,674)"/>
<path d="M0 0 C0.66 0 1.32 0 2 0 C2.83819158 1.62249941 3.6704116 3.24808497 4.5 4.875 C4.9640625 5.77992188 5.428125 6.68484375 5.90625 7.6171875 C7 10 7 10 7 12 C10.465 11.505 10.465 11.505 14 11 C12 14 12 14 8.875 14.6875 C7.451875 14.8421875 7.451875 14.8421875 6 15 C4.99267601 13.06629769 3.99436712 11.12789694 3 9.1875 C2.443125 8.10855469 1.88625 7.02960938 1.3125 5.91796875 C0 3 0 3 0 0 Z " fill="#784BF5" transform="translate(549,350)"/>
<path d="M0 0 C2.68756955 -0.02720824 5.37485798 -0.0469388 8.0625 -0.0625 C8.81466797 -0.07087891 9.56683594 -0.07925781 10.34179688 -0.08789062 C14.97466436 -0.10794633 19.45554569 -0.01309491 24 1 C24.66 1.99 25.32 2.98 26 4 C23.16658768 3.68820356 20.33327045 3.37558083 17.5 3.0625 C16.70851563 2.97548828 15.91703125 2.88847656 15.1015625 2.79882812 C10.06184897 2.24115491 5.02989934 1.64027388 0 1 C0 0.67 0 0.34 0 0 Z " fill="#9369F5" transform="translate(647,353)"/>
<path d="M0 0 C0 0.66 0 1.32 0 2 C-0.59167969 1.79503906 -1.18335938 1.59007812 -1.79296875 1.37890625 C-2.58316406 1.10949219 -3.37335937 0.84007812 -4.1875 0.5625 C-4.96480469 0.29566406 -5.74210938 0.02882812 -6.54296875 -0.24609375 C-11.78007643 -1.85302822 -16.8747405 -2.26607164 -22.3125 -2.5625 C-23.05306641 -2.60568359 -23.79363281 -2.64886719 -24.55664062 -2.69335938 C-26.37091464 -2.79870432 -28.1854355 -2.89978316 -30 -3 C-30 -3.33 -30 -3.66 -30 -4 C-19.38784627 -6.07801516 -9.82846442 -4.23470912 0 0 Z " fill="#8D3EF0" transform="translate(811,243)"/>
<path d="M0 0 C0.33 0 0.66 0 1 0 C0.88137904 6.88001558 0.88137904 6.88001558 -1.4140625 9.796875 C-7.16026962 14.91023993 -12.31170054 16.30753198 -20 16 C-20 15.67 -20 15.34 -20 15 C-19.41992188 14.90203125 -18.83984375 14.8040625 -18.2421875 14.703125 C-11.699165 13.45066525 -7.30848208 11.4956563 -2.6875 6.5 C-1.14668622 4.21731291 -0.39891965 2.69270763 0 0 Z " fill="#4D7CFB" transform="translate(370,815)"/>
<path d="M0 0 C1.11375 0.4640625 1.11375 0.4640625 2.25 0.9375 C7.44702225 2.40998964 12.62487263 2.66949055 18 3 C17.67 3.66 17.34 4.32 17 5 C12.56404283 6.24206801 8.88836162 6.32304059 4.5625 4.75 C2 3 2 3 0 0 Z " fill="#4680FC" transform="translate(392,950)"/>
<path d="M0 0 C-0.60585938 0.21914063 -1.21171875 0.43828125 -1.8359375 0.6640625 C-8.35310591 3.13056008 -14.13188953 6.25439757 -20 10 C-18.49821378 5.99818144 -16.20119996 4.52245735 -12.625 2.3125 C-11.66851562 1.71050781 -10.71203125 1.10851562 -9.7265625 0.48828125 C-3.97597479 -2.65064986 -3.97597479 -2.65064986 0 0 Z " fill="#587BFC" transform="translate(370,744)"/>
<path d="M0 0 C1.32 0.33 2.64 0.66 4 1 C4 1.66 4 2.32 4 3 C4.680625 3.20625 5.36125 3.4125 6.0625 3.625 C9.97009851 5.45408866 12.83857939 8.10279034 16 11 C15.01 12.485 15.01 12.485 14 14 C13.319375 12.9790625 13.319375 12.9790625 12.625 11.9375 C9.47799093 8.41584699 5.98684839 6.11859628 2.046875 3.55078125 C1.37140625 3.03902344 0.6959375 2.52726563 0 2 C0 1.34 0 0.68 0 0 Z " fill="#8751F5" transform="translate(749,512)"/>
<path d="M0 0 C1.49176509 2.35970114 2.07214212 3.52671596 1.64453125 6.33203125 C1.36996094 7.15058594 1.09539063 7.96914063 0.8125 8.8125 C0.379375 10.11767578 0.379375 10.11767578 -0.0625 11.44921875 C-1.25667291 14.69836422 -2.5624068 17.85098632 -4 21 C-4.66 21 -5.32 21 -6 21 C-3.30337079 11.74157303 -3.30337079 11.74157303 -1.875 8.25 C-0.81863208 5.53362535 -0.40172531 2.87903136 0 0 Z " fill="#855CF7" transform="translate(666,469)"/>
<path d="M0 0 C6.6 0 13.2 0 20 0 C20 0.99 20 1.98 20 3 C18.02 2.34 16.04 1.68 14 1 C14 1.66 14 2.32 14 3 C7.07 2.505 7.07 2.505 0 2 C0 1.34 0 0.68 0 0 Z " fill="#4D72FB" transform="translate(442,891)"/>
<path d="M0 0 C0.66 0 1.32 0 2 0 C0.32770299 3.95969176 -2.36304994 7.0161201 -5.125 10.25 C-5.59292969 10.80429687 -6.06085937 11.35859375 -6.54296875 11.9296875 C-7.69175328 13.28947326 -8.84539653 14.64515165 -10 16 C-10.33 15.01 -10.66 14.02 -11 13 C-10.67 12.34 -10.34 11.68 -10 11 C-9.34 11 -8.68 11 -8 11 C-8 10.34 -8 9.68 -8 9 C-7.34 9 -6.68 9 -6 9 C-5.67 7.68 -5.34 6.36 -5 5 C-4.34 5 -3.68 5 -3 5 C-2.67 4.01 -2.34 3.02 -2 2 C-1.34 2 -0.68 2 0 2 C0 1.34 0 0.68 0 0 Z " fill="#8A46F6" transform="translate(746,296)"/>
<path d="M0 0 C0.875 2.1875 0.875 2.1875 1 4 C0.01 3.67 -0.98 3.34 -2 3 C-2 2.34 -2 1.68 -2 1 C-4.72501908 0.09166031 -6.62233971 -0.18359985 -9.44921875 -0.31640625 C-10.29677734 -0.35830078 -11.14433594 -0.40019531 -12.01757812 -0.44335938 C-12.89865234 -0.48267578 -13.77972656 -0.52199219 -14.6875 -0.5625 C-15.58017578 -0.60568359 -16.47285156 -0.64886719 -17.39257812 -0.69335938 C-19.59490108 -0.79935353 -21.79733473 -0.90142051 -24 -1 C-24 -1.33 -24 -1.66 -24 -2 C-21.12545466 -2.25009147 -18.2524034 -2.4755982 -15.375 -2.6875 C-14.56675781 -2.76033203 -13.75851562 -2.83316406 -12.92578125 -2.90820312 C-7.79032907 -3.2630921 -4.43508541 -2.97543705 0 0 Z " fill="#784AF7" transform="translate(885,782)"/>
<path d="M0 0 C0 0.66 0 1.32 0 2 C-2.76264289 2.59732819 -5.16032769 3 -8 3 C-8.268125 3.598125 -8.53625 4.19625 -8.8125 4.8125 C-9.98493467 6.97224808 -11.19369282 8.35790256 -13 10 C-12.52723148 5.74508335 -10.07452523 3.77457155 -7 1 C-4.53721199 -0.231394 -2.7204945 -0.07159196 0 0 Z " fill="#557DFB" transform="translate(435,891)"/>
<path d="M0 0 C0.66 0.33 1.32 0.66 2 1 C0.56974806 2.65213589 -0.86945545 4.29652589 -2.3125 5.9375 C-3.11300781 6.85402344 -3.91351562 7.77054688 -4.73828125 8.71484375 C-7 11 -7 11 -10 12 C-8.52278578 8.54798361 -6.56205999 6.35038064 -3.875 3.75 C-3.15054688 3.04359375 -2.42609375 2.3371875 -1.6796875 1.609375 C-1.12539063 1.07828125 -0.57109375 0.5471875 0 0 Z " fill="#644BF9" transform="translate(784,909)"/>
<path d="M0 0 C0.66 0 1.32 0 2 0 C1.690625 0.763125 1.38125 1.52625 1.0625 2.3125 C0.32106407 4.18789677 -0.36228217 6.08684652 -1 8 C-6.46511628 13 -6.46511628 13 -9 13 C-9 12.01 -9 11.02 -9 10 C-7.6078125 9.1028125 -7.6078125 9.1028125 -6.1875 8.1875 C-2.657201 5.76474579 -1.59680539 3.90330207 0 0 Z " fill="#4D7FFC" transform="translate(420,941)"/>
<path d="M0 0 C0.33 0 0.66 0 1 0 C1.33 4.95 1.66 9.9 2 15 C0.35 15 -1.3 15 -3 15 C-3.33 14.34 -3.66 13.68 -4 13 C-2.68 13 -1.36 13 0 13 C0 8.71 0 4.42 0 0 Z " fill="#7085FB" transform="translate(397,727)"/>
<path d="M0 0 C-1.98 0.33 -3.96 0.66 -6 1 C-6 1.66 -6 2.32 -6 3 C-9.44450737 5.29633824 -11.93812283 5.54016485 -16 6 C-13.75539393 3.50439964 -11.61479403 2.1294516 -8.5625 0.75 C-7.80066406 0.39421875 -7.03882813 0.0384375 -6.25390625 -0.328125 C-3.72027666 -1.08338373 -2.45814874 -0.87351072 0 0 Z " fill="#9E63F5" transform="translate(1075,721)"/>
<path d="M0 0 C3.76119476 0.62393651 6.18960042 2.34773715 9.25 4.5625 C10.14203125 5.20316406 11.0340625 5.84382812 11.953125 6.50390625 C12.96632813 7.24447266 12.96632813 7.24447266 14 8 C13.01 8.66 12.02 9.32 11 10 C10.67 9.01 10.34 8.02 10 7 C7.98491642 6.26676204 7.98491642 6.26676204 6 6 C6 5.34 6 4.68 6 4 C5.01 4 4.02 4 3 4 C3 3.34 3 2.68 3 2 C2.01 1.67 1.02 1.34 0 1 C0 0.67 0 0.34 0 0 Z " fill="#784AF9" transform="translate(705,515)"/>
<path d="M0 0 C3.19624262 1.53837846 6.21605574 3.28866532 9.25 5.125 C10.14203125 5.66382813 11.0340625 6.20265625 11.953125 6.7578125 C12.96632813 7.37269531 12.96632813 7.37269531 14 8 C13.01 8.33 12.02 8.66 11 9 C7.10974719 7.01950766 3.29154175 4.89655674 0 2 C0 1.34 0 0.68 0 0 Z " fill="#6B49F8" transform="translate(441,309)"/>
<path d="M0 0 C2.64 0.33 5.28 0.66 8 1 C8 1.66 8 2.32 8 3 C9.65 3.33 11.3 3.66 13 4 C13.33 4.99 13.66 5.98 14 7 C9.0276578 5.50829734 4.58154261 3.39542583 0 1 C0 0.67 0 0.34 0 0 Z " fill="#8051F4" transform="translate(888,742)"/>
<path d="M0 0 C0 0.66 0 1.32 0 2 C-3.08809695 3.76462683 -4.23312136 4 -8 4 C-8 4.66 -8 5.32 -8 6 C-9.65 5.67 -11.3 5.34 -13 5 C-13 4.34 -13 3.68 -13 3 C-12.37351562 2.86722656 -11.74703125 2.73445312 -11.1015625 2.59765625 C-10.28429687 2.42105469 -9.46703125 2.24445312 -8.625 2.0625 C-7.81289063 1.88847656 -7.00078125 1.71445312 -6.1640625 1.53515625 C-3.88723554 0.9721142 -2.3530537 0 0 0 Z " fill="#587EFB" transform="translate(346,707)"/>
<path d="M0 0 C0.66 0.66 1.32 1.32 2 2 C0.76265016 3.03613033 -0.49044637 4.05347802 -1.75 5.0625 C-2.79414062 5.91521484 -2.79414062 5.91521484 -3.859375 6.78515625 C-6 8 -6 8 -10 7 C-6.7 4.69 -3.4 2.38 0 0 Z " fill="#755BF9" transform="translate(545,521)"/>
<path d="M0 0 C-3.06091492 3.06091492 -6.76897449 3.54771796 -11 4 C-14.0625 3.125 -14.0625 3.125 -16 2 C-16 1.67 -16 1.34 -16 1 C-14.27111445 0.83044205 -12.54187557 0.66448486 -10.8125 0.5 C-9.84957031 0.4071875 -8.88664063 0.314375 -7.89453125 0.21875 C-5.24812333 0.01875156 -2.65239135 -0.03879183 0 0 Z " fill="#7842F6" transform="translate(933,709)"/>
<path d="M0 0 C3.99455527 0.61454696 6.74466336 2.70646737 10 5 C9.34 6.32 8.68 7.64 8 9 C7.01 8.34 6.02 7.68 5 7 C5.33 6.01 5.66 5.02 6 4 C5.195625 3.71125 4.39125 3.4225 3.5625 3.125 C1 2 1 2 0 0 Z " fill="#7A45F8" transform="translate(719,525)"/>
<path d="M0 0 C3.78080393 1.26026798 4.77295425 2.93546534 7.1875 6.0625 C7.90292969 6.98160156 8.61835937 7.90070313 9.35546875 8.84765625 C10.16951172 9.91306641 10.16951172 9.91306641 11 11 C8 11 8 11 5.95703125 9.1015625 C5.24933594 8.28429687 4.54164063 7.46703125 3.8125 6.625 C3.09707031 5.81289063 2.38164063 5.00078125 1.64453125 4.1640625 C0 2 0 2 0 0 Z " fill="#894EFA" transform="translate(772,459)"/>
<path d="M0 0 C0.99 0.33 1.98 0.66 3 1 C0.03 3.97 -2.94 6.94 -6 10 C-6.33 9.34 -6.66 8.68 -7 8 C-6.67 7.34 -6.34 6.68 -6 6 C-5.34 6 -4.68 6 -4 6 C-3.71125 5.38125 -3.4225 4.7625 -3.125 4.125 C-2 2 -2 2 0 0 Z " fill="#607BFB" transform="translate(240,450)"/>
<path d="M0 0 C1.77074917 -0.02705729 3.54161711 -0.04642195 5.3125 -0.0625 C6.29863281 -0.07410156 7.28476562 -0.08570313 8.30078125 -0.09765625 C11 0 11 0 14 1 C14 1.66 14 2.32 14 3 C4.58997722 2.03644647 4.58997722 2.03644647 0 1 C0 0.67 0 0.34 0 0 Z " fill="#9367F4" transform="translate(674,357)"/>
<path d="M0 0 C3.63 0.33 7.26 0.66 11 1 C9 3 9 3 7.0546875 3.1953125 C5.03645833 3.13020833 3.01822917 3.06510417 1 3 C0.67 2.01 0.34 1.02 0 0 Z " fill="#5261F9" transform="translate(594,971)"/>
<path d="M0 0 C0.66 0.33 1.32 0.66 2 1 C-2.18461538 5.92307692 -2.18461538 5.92307692 -6.3125 6.3125 C-7.199375 6.209375 -8.08625 6.10625 -9 6 C-6.12050853 3.76039553 -3.23257974 1.70135776 0 0 Z " fill="#8257F8" transform="translate(1008,941)"/>
<path d="M0 0 C1.33895632 1.66215268 2.67130142 3.32963607 4 5 C4.598125 5.70125 5.19625 6.4025 5.8125 7.125 C6.204375 7.74375 6.59625 8.3625 7 9 C6.67 9.99 6.34 10.98 6 12 C6 11.34 6 10.68 6 10 C5.34 10 4.68 10 4 10 C4 9.01 4 8.02 4 7 C3.01 6.67 2.02 6.34 1 6 C0.67 4.02 0.34 2.04 0 0 Z " fill="#4092FD" transform="translate(225,915)"/>
<path d="M0 0 C1.32 0.33 2.64 0.66 4 1 C4 1.66 4 2.32 4 3 C4.94875 3.309375 5.8975 3.61875 6.875 3.9375 C10 5 10 5 12 6 C12 6.66 12 7.32 12 8 C7.53828494 6.42527704 2.20311486 4.40622971 0 0 Z " fill="#9149F0" transform="translate(1056,660)"/>
<path d="M0 0 C5.28 0.33 10.56 0.66 16 1 C16 1.99 16 2.98 16 4 C10.72 3.01 5.44 2.02 0 1 C0 0.67 0 0.34 0 0 Z " fill="#A962F3" transform="translate(979,435)"/>
<path d="M0 0 C5.04424468 0.44508041 7.44443409 2.60980925 11 6 C11 6.66 11 7.32 11 8 C8 7 8 7 6.0625 5 C3.94325285 2.94497246 2.86252086 2.40893155 0 2 C0 1.34 0 0.68 0 0 Z " fill="#458AFC" transform="translate(193,724)"/>
<path d="M0 0 C0.66 0 1.32 0 2 0 C3.32421875 1.6796875 3.32421875 1.6796875 4.6875 3.875 C5.14511719 4.59429688 5.60273438 5.31359375 6.07421875 6.0546875 C6.37972656 6.69664062 6.68523437 7.33859375 7 8 C6.67 8.66 6.34 9.32 6 10 C3.66475218 7.74259377 1.81294927 5.7194239 0 3 C0 2.01 0 1.02 0 0 Z " fill="#5A8AFD" transform="translate(335,817)"/>
<path d="M0 0 C0.515625 0.268125 1.03125 0.53625 1.5625 0.8125 C4.66401415 2.32349407 7.82262806 3.65572726 11 5 C11 5.33 11 5.66 11 6 C7.14521782 6.35858439 5.42240542 6.2754818 2.125 4.125 C1.42375 3.42375 0.7225 2.7225 0 2 C0 1.34 0 0.68 0 0 Z " fill="#8B5BF8" transform="translate(909,704)"/>
<path d="M0 0 C1.11375 0.1546875 1.11375 0.1546875 2.25 0.3125 C1.92 1.3025 1.59 2.2925 1.25 3.3125 C-0.5625 3.9375 -0.5625 3.9375 -2.75 4.3125 C-3.86375 4.5909375 -3.86375 4.5909375 -5 4.875 C-5.5775 5.019375 -6.155 5.16375 -6.75 5.3125 C-3.42692308 0.38942308 -3.42692308 0.38942308 0 0 Z " fill="#9051F7" transform="translate(779.75,317.6875)"/>
<path d="M0 0 C0.66 0.66 1.32 1.32 2 2 C-0.31 3.65 -2.62 5.3 -5 7 C-5.99 6.34 -6.98 5.68 -8 5 C-4.04 2.525 -4.04 2.525 0 0 Z " fill="#7B53F7" transform="translate(707,579)"/>
<path d="M0 0 C4.51478398 0.53115106 7.34666857 2.36620292 11 5 C10.01 5.66 9.02 6.32 8 7 C7.67 6.34 7.34 5.68 7 5 C5.34948712 3.88365848 5.34948712 3.88365848 3.4375 2.875 C2.303125 2.25625 1.16875 1.6375 0 1 C0 0.67 0 0.34 0 0 Z " fill="#7548F9" transform="translate(686,502)"/>
<path d="M0 0 C-0.928125 0.5775 -1.85625 1.155 -2.8125 1.75 C-5.59815842 3.71634712 -7.18738696 5.18037972 -9 8 C-8.8125 5.1875 -8.8125 5.1875 -8 2 C-3.9389313 -1.3129771 -3.9389313 -1.3129771 0 0 Z " fill="#7A4DF7" transform="translate(691,478)"/>
<path d="M0 0 C4.67692308 1.47692308 4.67692308 1.47692308 6.3125 4.125 C6.539375 4.74375 6.76625 5.3625 7 6 C6.01 6.66 5.02 7.32 4 8 C3.71125 7.236875 3.4225 6.47375 3.125 5.6875 C2.03730987 2.84970692 2.03730987 2.84970692 0 0 Z " fill="#893FF6" transform="translate(1025,690)"/>
<path d="M0 0 C-4.625 3 -4.625 3 -8 3 C-8 2.01 -8 1.02 -8 0 C-4.71303767 -0.79953138 -3.28976808 -1.09658936 0 0 Z " fill="#8058F6" transform="translate(563,362)"/>
<path d="M0 0 C0.66 0 1.32 0 2 0 C1.5359375 1.1446875 1.5359375 1.1446875 1.0625 2.3125 C0.32106407 4.18789677 -0.36228217 6.08684652 -1 8 C-1.99 8.33 -2.98 8.66 -4 9 C-2.80100302 5.9168649 -1.52299523 2.93720508 0 0 Z " fill="#7666F9" transform="translate(459,500)"/>
<path d="M0 0 C0 0.99 0 1.98 0 3 C-2.5 5.1875 -2.5 5.1875 -5 7 C-5.66 6.67 -6.32 6.34 -7 6 C-4.69 4.02 -2.38 2.04 0 0 Z " fill="#775DF9" transform="translate(500,447)"/>
<path d="M0 0 C0 0.66 0 1.32 0 2 C-2.64 2.33 -5.28 2.66 -8 3 C-8.33 2.34 -8.66 1.68 -9 1 C-5.92677456 0.08941469 -3.19902639 -0.08886184 0 0 Z " fill="#875FF7" transform="translate(595,354)"/>
<path d="M0 0 C5.75 1.875 5.75 1.875 8 3 C8 3.66 8 4.32 8 5 C4.62537285 4.45276317 2.91765 3.9451 0 2 C0 1.34 0 0.68 0 0 Z " fill="#4C92FC" transform="translate(167,716)"/>
</svg>
